<?xml version="1.0" encoding="UTF-8"?>
<svg version="1.1" xmlns="http://www.w3.org/2000/svg" width="794" height="1123">
<path d="M0 0 C262.02 0 524.04 0 794 0 C794 370.59 794 741.18 794 1123 C531.98 1123 269.96 1123 0 1123 C0 752.41 0 381.82 0 0 Z " fill="#FEFEFE" transform="translate(0,0)"/>
<path d="M0 0 C1.41663161 0.04664983 2.83329731 0.09227973 4.25 0.13671875 C14.82689941 0.61651761 23.85808712 2.96152927 33.58203125 7.02734375 C35.96730267 7.98684712 38.36145888 8.78870024 40.8125 9.5625 C44.20417068 10.65927927 46.98531693 12.07395248 50 14 C50.79148437 14.28746094 51.58296875 14.57492188 52.3984375 14.87109375 C60.57075917 18.41734144 67.72814954 28.53257966 71.06640625 36.56640625 C71.7749433 38.69886318 72.39400529 40.83706504 73 43 C73.33 43.66 73.66 44.32 74 45 C74.98092765 58.34196905 75.18343223 71.53174409 70 84 C69.62558737 85.36962557 69.26790024 86.74409642 68.9375 88.125 C68 91 68 91 66.54174805 92.44262695 C64.82595848 94.17580536 64.21553722 95.51239661 63.39453125 97.79296875 C63.13349609 98.50517578 62.87246094 99.21738281 62.60351562 99.95117188 C62.34248047 100.68916016 62.08144531 101.42714844 61.8125 102.1875 C61.53986328 102.93708984 61.26722656 103.68667969 60.98632812 104.45898438 C60.31673904 106.30329116 59.65736279 108.15130012 59 110 C58.34 110 57.68 110 57 110 C56.81824219 110.65226562 56.63648438 111.30453125 56.44921875 111.9765625 C55.01731218 116.9551915 53.36263075 121.37746158 51 126 C50.29187186 128.32108669 49.61975848 130.65377147 49 133 C47.97448721 136.07653838 47.19203004 136.80796996 45 139 C44.67 139.99 44.34 140.98 44 142 C43.34 142 42.68 142 42 142 C42 143.65 42 145.3 42 147 C41.34 147 40.68 147 40 147 C40 148.32 40 149.64 40 151 C39.34 151 38.68 151 38 151 C37.87625 151.969375 37.7525 152.93875 37.625 153.9375 C37.315625 155.4534375 37.315625 155.4534375 37 157 C36.34 157.33 35.68 157.66 35 158 C34.023984 159.73853743 34.023984 159.73853743 33.16015625 161.859375 C32.6487207 163.03886719 32.6487207 163.03886719 32.12695312 164.2421875 C31.60004883 165.48355469 31.60004883 165.48355469 31.0625 166.75 C28.94675755 171.69589143 26.85417882 176.42466486 24 181 C23.30420546 183.19130534 23.30420546 183.19130534 23 185 C22.34 185 21.68 185 21 185 C21 186.32 21 187.64 21 189 C20.34 189 19.68 189 19 189 C19 190.32 19 191.64 19 193 C18.34 193 17.68 193 17 193 C16.938125 193.763125 16.87625 194.52625 16.8125 195.3125 C15.84026813 199.72493694 14.09117196 203.44500777 12.15625 207.51171875 C10.92251169 210.0441306 10.92251169 210.0441306 10 213 C9.34 213 8.68 213 8 213 C7.67 213.99 7.34 214.98 7 216 C6.34 216 5.68 216 5 216 C4.34 218.64 3.68 221.28 3 224 C2.34 224 1.68 224 1 224 C0.938125 224.969375 0.87625 225.93875 0.8125 226.9375 C0.23396495 231.1046293 -1.62596354 234.10805834 -3.7421875 237.6875 C-5.30750337 240.56534781 -6.21996734 243.46044248 -7.17578125 246.58203125 C-8.75164096 251.20505097 -10.91408164 255.58906592 -13 260 C-13.66 260 -14.32 260 -15 260 C-15.10699219 260.66128906 -15.21398437 261.32257813 -15.32421875 262.00390625 C-16.17402947 265.77156416 -17.46185527 269.32796062 -18.8125 272.9375 C-19.06064453 273.62779297 -19.30878906 274.31808594 -19.56445312 275.02929688 C-21.21599918 279.46283653 -23.24889985 283.11448206 -26 287 C-28.87991438 291.74818745 -31.28419587 296.46143566 -33.12109375 301.69921875 C-34.71460757 305.87068383 -36.68022048 309.87839456 -38.5703125 313.921875 C-40.11839395 317.25490282 -41.58112318 320.61046093 -43 324 C-43.66 324 -44.32 324 -45 324 C-45.061875 324.763125 -45.12375 325.52625 -45.1875 326.3125 C-46.34487791 331.56521514 -48.67197995 336.1721503 -51 341 C-51.66 341 -52.32 341 -53 341 C-53.11730469 341.55171875 -53.23460937 342.1034375 -53.35546875 342.671875 C-54.09661969 345.34900202 -55.14864685 347.72771764 -56.3125 350.25 C-56.75980469 351.22195313 -57.20710938 352.19390625 -57.66796875 353.1953125 C-58.77771444 355.53196179 -59.93170749 357.83056113 -61.125 360.125 C-62.53605242 362.88501854 -63.57238801 365.6051134 -64.5 368.5625 C-65.82414823 372.77636398 -67.68344125 376.24557721 -70 380 C-70.66 380 -71.32 380 -72 380 C-72.33 382.97 -72.66 385.94 -73 389 C-73.66 389 -74.32 389 -75 389 C-75 389.99 -75 390.98 -75 392 C-75.66 392 -76.32 392 -77 392 C-77.12528076 392.57202148 -77.25056152 393.14404297 -77.37963867 393.73339844 C-78.01940225 396.0708896 -78.88076539 398.08079072 -79.92578125 400.265625 C-80.31056641 401.07386719 -80.69535156 401.88210938 -81.09179688 402.71484375 C-81.69604492 403.96974609 -81.69604492 403.96974609 -82.3125 405.25 C-82.70373047 406.07113281 -83.09496094 406.89226562 -83.49804688 407.73828125 C-85.35390301 411.622345 -87.23916118 415.48762437 -89.18359375 419.328125 C-90.53050157 422.00783689 -91.73987921 424.67166178 -92.75 427.5 C-93.1625 428.655 -93.575 429.81 -94 431 C-94.66 431 -95.32 431 -96 431 C-96.103125 431.886875 -96.20625 432.77375 -96.3125 433.6875 C-97.17958485 437.86527245 -99.0643358 440.59780686 -101.40234375 444.1015625 C-103.47732076 447.86594623 -104.80871168 451.75103218 -106.1875 455.8125 C-106.46013672 456.60076172 -106.73277344 457.38902344 -107.01367188 458.20117188 C-107.68081726 460.13238221 -108.34110418 462.06595951 -109 464 C-109.66 464 -110.32 464 -111 464 C-111 464.99 -111 465.98 -111 467 C-111.66 467 -112.32 467 -113 467 C-113 468.32 -113 469.64 -113 471 C-113.66 471 -114.32 471 -115 471 C-114.95875 471.9075 -114.9175 472.815 -114.875 473.75 C-114.99531556 476.8782046 -115.3914708 478.38614006 -117 481 C-117.66 481 -118.32 481 -119 481 C-119.0825 481.53625 -119.165 482.0725 -119.25 482.625 C-120.26182876 485.82912442 -122.13849405 488.20774108 -124 491 C-124.56775899 492.25939266 -125.11012906 493.53057643 -125.625 494.8125 C-127 498 -127 498 -129 499 C-129.77046456 501.30690996 -129.77046456 501.30690996 -130.375 504.0625 C-131.47155062 508.32808191 -132.80063887 511.95406407 -134.890625 515.8125 C-136.81606278 519.60913788 -138.29555586 523.59920106 -139.8515625 527.55859375 C-141 530 -141 530 -143 531 C-144.06380523 533.17076327 -144.06380523 533.17076327 -145 535.75 C-145.33 536.61109375 -145.66 537.4721875 -146 538.359375 C-146.33 539.23078125 -146.66 540.1021875 -147 541 C-147.66348783 542.66793469 -148.32920487 544.33499066 -149 546 C-149.66 546 -150.32 546 -151 546 C-151.14308594 547.28003906 -151.14308594 547.28003906 -151.2890625 548.5859375 C-154.05884413 561.88697674 -166.06567502 575.2317203 -176.96875 582.828125 C-184.46142188 587.15082032 -193.30662481 590.42406708 -202 590 C-202 590.66 -202 591.32 -202 592 C-218.75961719 597.20485006 -236.67392969 597.3257666 -254.0769043 597.20581055 C-256.82935812 597.18738716 -259.58147473 597.18530331 -262.33398438 597.18554688 C-277.50183302 597.15769126 -292.33308907 596.72818383 -307.25 593.6875 C-308.33667969 593.48705078 -309.42335938 593.28660156 -310.54296875 593.08007812 C-311.58582031 592.87189453 -312.62867188 592.66371094 -313.703125 592.44921875 C-314.62770508 592.26705811 -315.55228516 592.08489746 -316.50488281 591.8972168 C-319.48528929 590.82549529 -320.84395194 589.27554733 -323 587 C-325.30657014 586.24592899 -327.645752 585.588562 -330 585 C-335.00628467 583.42958751 -339.21120789 581.78879211 -343 578 C-343 577.01 -343 576.02 -343 575 C-343.66 575 -344.32 575 -345 575 C-345 574.34 -345 573.68 -345 573 C-345.66 573 -346.32 573 -347 573 C-347 572.34 -347 571.68 -347 571 C-347.61875 570.87625 -348.2375 570.7525 -348.875 570.625 C-351 570 -351 570 -353 568 C-353.68389311 566.42704585 -354.36256477 564.85162842 -355.015625 563.265625 C-359.65925128 551.7882354 -359.65925128 551.7882354 -367.0625 542.1875 C-369.4257755 539.51928573 -369.78971601 537.44714222 -370.49609375 534.0234375 C-370.99092155 531.72319583 -370.99092155 531.72319583 -372.625 528.75 C-374 526 -374 526 -374 522 C-374.66 522 -375.32 522 -376 522 C-378 519 -378 519 -378 515 C-378.66 515 -379.32 515 -380 515 C-381.18131571 512.63134147 -382.34495951 510.25643484 -383.5 507.875 C-383.83386719 507.20984375 -384.16773438 506.5446875 -384.51171875 505.859375 C-386.49647259 501.7278466 -387.40901691 498.68908674 -387 494 C-387.66 494 -388.32 494 -389 494 C-389.66 490.7 -390.32 487.4 -391 484 C-386.27150277 485.18212431 -384.04579843 487.50880805 -380.6875 490.8125 C-376.3820588 495.04643921 -372.33651652 498.14872041 -367 501 C-366.13375 501.639375 -365.2675 502.27875 -364.375 502.9375 C-351.49243796 510.8101768 -335.94381878 513.67105757 -321 512 C-317.51293918 511.15398313 -314.22603763 510.13129719 -310.8671875 508.875 C-307.7708644 507.93007306 -305.21847684 507.84719398 -302 508 C-302 507.34 -302 506.68 -302 506 C-300.36675689 504.94629477 -298.69215731 503.95623294 -297 503 C-289.65919354 498.15186614 -283.46662319 492.74202627 -277.41015625 486.41796875 C-275 484 -275 484 -272.80859375 482.48828125 C-270.49249906 480.58238044 -270.02060118 478.79300322 -269 476 C-267.98147612 474.44937129 -266.91550989 472.9292136 -265.8125 471.4375 C-259.00078186 461.90962703 -253.85842313 452.13357706 -249.82421875 441.18359375 C-248.57034696 437.86172488 -247.21639469 434.58099171 -245.8671875 431.296875 C-245.07882705 429.20878516 -244.48889939 427.17510342 -244 425 C-243.34 425 -242.68 425 -242 425 C-241.34 422.03 -240.68 419.06 -240 416 C-239.34 416 -238.68 416 -238 416 C-238.04125 415.28457031 -238.0825 414.56914063 -238.125 413.83203125 C-237.98639687 410.69180414 -237.22896491 408.56788652 -236 405.6875 C-235.62875 404.80449219 -235.2575 403.92148437 -234.875 403.01171875 C-234.58625 402.34785156 -234.2975 401.68398438 -234 401 C-233.34 401 -232.68 401 -232 401 C-231.938125 400.071875 -231.87625 399.14375 -231.8125 398.1875 C-231.18341518 393.75732521 -229.31065196 390.10713599 -227.390625 386.1015625 C-225.87722438 382.72616898 -224.68528658 379.31584705 -223.5 375.8125 C-221.82272359 370.96644505 -219.99770936 366.81958081 -217.015625 362.6484375 C-215.87392615 360.79537245 -215.426542 359.12343737 -215 357 C-214.34 357 -213.68 357 -213 357 C-212.85304688 356.09121094 -212.85304688 356.09121094 -212.703125 355.1640625 C-211.71163841 349.60831866 -210.2167056 344.66522934 -208.01953125 339.47265625 C-206.47114534 335.71737547 -205.233309 331.86810551 -204 328 C-203.34 328 -202.68 328 -202 328 C-201.86335937 327.41992188 -201.72671875 326.83984375 -201.5859375 326.2421875 C-200.37850214 321.62173485 -198.64173927 317.2321394 -196.4375 313 C-195.04350647 310.09079611 -194.34378941 307.33187022 -193.59106445 304.2109375 C-192.61077433 300.54406127 -191.24374835 297.03647899 -189.875 293.5 C-189.59785156 292.77296875 -189.32070313 292.0459375 -189.03515625 291.296875 C-188.36083685 289.52969313 -187.68100485 287.76461634 -187 286 C-186.34 286 -185.68 286 -185 286 C-184.79697266 285.12988281 -184.79697266 285.12988281 -184.58984375 284.2421875 C-184.03423927 282.13015457 -183.35106183 280.15973466 -182.5625 278.125 C-181.28358965 274.77726408 -180.10790033 271.4089241 -179 268 C-178.34 268 -177.68 268 -177 268 C-176.97421875 267.39671875 -176.9484375 266.7934375 -176.921875 266.171875 C-176.5401143 260.79251965 -175.98156831 258.74735841 -172 255 C-170.77773656 252.06245929 -169.86316723 249.06032018 -169 246 C-168.34 246 -167.68 246 -167 246 C-166.8453125 245.01 -166.8453125 245.01 -166.6875 244 C-165.9936623 240.97234456 -164.94376617 238.20160443 -163.828125 235.30859375 C-161.46041463 228.70804266 -159.77413914 221.96725229 -159 215 C-158.34 215 -157.68 215 -157 215 C-156.87238281 214.41476562 -156.74476563 213.82953125 -156.61328125 213.2265625 C-156.01659325 211.06024302 -155.2428363 209.35112772 -154.1875 207.375 C-152.14473423 203.41574852 -150.5110091 199.36162313 -148.9296875 195.19921875 C-148 193 -148 193 -146 190 C-145.52697659 188.10980485 -145.52697659 188.10980485 -145.21484375 186.03125 C-143.97620944 180.05680316 -141.29305867 174.91839673 -138.5625 169.5 C-135.19086369 162.75672737 -132.20048454 156.22057299 -130 149 C-129.34 149 -128.68 149 -128 149 C-127.9175 147.741875 -127.835 146.48375 -127.75 145.1875 C-127.13697962 139.44157759 -125.1427169 134.33187693 -123 129 C-122.34 129 -121.68 129 -121 129 C-120.90203125 128.443125 -120.8040625 127.88625 -120.703125 127.3125 C-119.58876928 121.62544324 -117.754998 117.06655455 -115 112 C-111.39795013 105.05160132 -108.2000113 98.25046021 -106.0703125 90.70703125 C-105.01352635 87.04684855 -103.8297069 83.46739339 -102.5625 79.875 C-102.15128906 78.69679688 -101.74007813 77.51859375 -101.31640625 76.3046875 C-100 73 -100 73 -98.453125 70.453125 C-96.7888728 67.64358096 -96.03482499 65.02441801 -95.1875 61.875 C-93.53365321 56.25192091 -91.30563452 51.48255849 -88.37109375 46.42578125 C-86.84851556 43.85257396 -86.84851556 43.85257396 -85.5 40.3125 C-82.64572776 34.00931548 -79.13630132 29.30416225 -73 26 C-71.84296269 24.8760209 -70.68962582 23.74748906 -69.5703125 22.5859375 C-57.26229353 10.15545068 -57.26229353 10.15545068 -50 7 C-48.68 7 -47.36 7 -46 7 C-46 6.34 -46 5.68 -46 5 C-30.44388386 1.36023667 -15.96759144 -0.7896431 0 0 Z " fill="#F46E12" transform="translate(644,220)"/>
<path d="M0 0 C0.6511377 0.15033691 1.30227539 0.30067383 1.97314453 0.45556641 C15.87207454 3.82956933 26.96810287 12.13989052 36.58203125 22.5390625 C37.95606389 24.11567795 37.95606389 24.11567795 40 25 C40.4021875 26.11375 40.4021875 26.11375 40.8125 27.25 C41.85373638 30.1572336 41.85373638 30.1572336 44.375 32.25 C48.24698592 36.3063662 51 41.30388543 51 47 C51.66 47 52.32 47 53 47 C53.30292969 47.81082031 53.60585937 48.62164062 53.91796875 49.45703125 C55.94033146 54.80229145 57.98646608 60.08532139 60.4375 65.25 C63.0515522 70.82554171 65.02210697 76.58412811 66.94506836 82.42675781 C68.01659472 86.45326281 68.01659472 86.45326281 71 89 C71.52734375 90.78515625 71.52734375 90.78515625 71.9375 93.0625 C72.71925379 96.94049123 73.81650583 100.47017797 75.27734375 104.140625 C75.95230191 105.8772741 76.51228501 107.65739268 77.0625 109.4375 C77.72128811 112.14661184 77.72128811 112.14661184 80 113 C80.72163108 115.20579539 81.35310313 117.44144456 81.9375 119.6875 C83.189972 124.48948781 84.75694552 128.58359048 87 133 C87.1875 135.875 87.1875 135.875 87 138 C87.66 138 88.32 138 89 138 C91.23979975 142.9116421 93.36580816 147.82621966 95.21484375 152.8984375 C96.11496981 155.30773013 97.08813335 157.68231283 98.0625 160.0625 C99.20975988 162.90250937 100.16986725 165.60515209 101 168.5625 C102.0371783 172.1278004 103.44457497 175.30334447 104.9921875 178.66796875 C106.29966762 181.69341693 107.27656711 184.78728271 108.2734375 187.92578125 C109.04409128 190.26590763 109.04409128 190.26590763 110.6875 193.375 C112 196 112 196 112 199 C112.66 199 113.32 199 114 199 C115.45554092 201.6834664 116.29537094 203.99951492 116.8125 207 C117.84194637 212.05516753 119.83619378 216.52648122 121.9765625 221.203125 C123.00929519 224.02540212 123.20626619 226.02542438 123 229 C123.66 229 124.32 229 125 229 C125.50471197 230.76949612 126.00360685 232.54065223 126.5 234.3125 C126.91765625 235.79169922 126.91765625 235.79169922 127.34375 237.30078125 C128 240 128 240 128 243 C128.99 243.33 129.98 243.66 131 244 C132.28125 246.58984375 132.28125 246.58984375 133.5 249.9375 C133.92925781 251.11183594 134.35851562 252.28617188 134.80078125 253.49609375 C136.09713119 257.28380025 137.28135698 261.08644077 138.38671875 264.93359375 C139.10685189 267.36002962 140.03964981 269.65914641 141 272 C141.44240392 273.3525725 141.87921712 274.70697813 142.3125 276.0625 C144.64888629 283.14175046 147.65778949 289.95402212 150.65625 296.7734375 C150.93170654 297.40419189 151.20716309 298.03494629 151.4909668 298.68481445 C152.27677893 300.48085639 153.06985956 302.27371292 153.86328125 304.06640625 C155 307 155 307 155 310 C155.99 310.33 156.98 310.66 158 311 C158.9921875 313.40625 158.9921875 313.40625 159.875 316.5 C161.39786314 321.43759088 163.30148373 325.56653299 165.9140625 330 C167.46922502 332.86418421 168.14850837 335.86012463 169 339 C170.21264647 342.01260256 171.48865759 344.99461848 172.765625 347.98046875 C174.15863453 351.38805218 175.28747124 354.8254389 176.32421875 358.35546875 C176.87660642 360.21218707 176.87660642 360.21218707 179 361 C179 362.65 179 364.3 179 366 C179.66 366 180.32 366 181 366 C181 367.65 181 369.3 181 371 C181.66 371 182.32 371 183 371 C183.23783203 372.32451172 183.23783203 372.32451172 183.48046875 373.67578125 C184.86000068 380.77160573 186.63170611 386.94112704 189.8125 393.42578125 C190.95997182 395.91322838 191.76284011 398.30299108 192.5 400.9375 C194.1503275 406.80323545 196.27661436 412.54424065 199 418 C199.66 418.33 200.32 418.66 201 419 C202.40734211 424.92445629 202.38378917 430.39809544 200 436 C199.01 436.33 198.02 436.66 197 437 C196.04575269 438.8403341 195.10272617 440.68739903 194.21875 442.5625 C185.86757924 459.26484153 172.83940299 474.67419852 156 483 C155.05640625 483.50660156 154.1128125 484.01320313 153.140625 484.53515625 C152.18671875 485.03917969 151.2328125 485.54320312 150.25 486.0625 C149.30640625 486.56910156 148.3628125 487.07570313 147.390625 487.59765625 C138.78046976 491.15876884 129.96743962 491.38793585 120.75 491.375 C119.55866455 491.37338867 118.3673291 491.37177734 117.13989258 491.37011719 C107.47022382 491.23534828 98.39189103 490.597036 90.125 485.08203125 C86.05609763 482.37112504 81.76818219 480.51379997 77.30273438 478.55664062 C71.01700641 475.72711353 71.01700641 475.72711353 69 473 C69 472.34 69 471.68 69 471 C68.01 471 67.02 471 66 471 C65.89042969 470.40832031 65.78085938 469.81664062 65.66796875 469.20703125 C64.72820129 464.52347471 63.62190335 461.05203244 61 457 C61 456.01 61 455.02 61 454 C60.34 454 59.68 454 59 454 C58.74605469 453.24074219 58.49210938 452.48148438 58.23046875 451.69921875 C57.88628906 450.70535156 57.54210937 449.71148438 57.1875 448.6875 C56.85105469 447.70136719 56.51460937 446.71523438 56.16796875 445.69921875 C55.0368659 443.08519846 54.10220515 441.84364516 52 440 C49.84964175 436.98949844 48.75400418 434.31582683 47.9375 430.75 C47.628125 429.5125 47.31875 428.275 47 427 C46.34 426.67 45.68 426.34 45 426 C44.1484375 424.07421875 44.1484375 424.07421875 43.375 421.6875 C43.11460937 420.90761719 42.85421875 420.12773438 42.5859375 419.32421875 C42 417 42 417 42 413 C41.34 413 40.68 413 40 413 C36.71428571 405.57142857 36.71428571 405.57142857 36 402 C35.34 402 34.68 402 34 402 C33.16260219 399.8765984 32.33019717 397.7512272 31.5 395.625 C31.0359375 394.44164062 30.571875 393.25828125 30.09375 392.0390625 C29 389 29 389 29 387 C28.01 386.67 27.02 386.34 26 386 C23.45193124 381.60641642 22.62189556 377.04139251 23 372 C21.68 371.67 20.36 371.34 19 371 C18.01 366.05 18.01 366.05 17 361 C16.34 361 15.68 361 15 361 C14.67 359.845 14.34 358.69 14 357.5 C11.96600997 351.35910188 8.9751468 345.7083456 6.03515625 339.96484375 C5.70370605 339.31435059 5.37225586 338.66385742 5.03076172 337.99365234 C4.32390846 336.62648899 3.60065188 335.26771876 2.86376953 333.91650391 C0.76164899 329.97025459 -0.50456304 327.08213475 -0.25 322.5 C-0.21390625 321.6440625 -0.1778125 320.788125 -0.140625 319.90625 C-0.09421875 319.2771875 -0.0478125 318.648125 0 318 C-0.92232422 317.65775391 -0.92232422 317.65775391 -1.86328125 317.30859375 C-4.6529053 315.60014026 -5.09188363 314.10786632 -6.1875 311.0625 C-6.51105469 310.18722656 -6.83460938 309.31195312 -7.16796875 308.41015625 C-7.78927649 306.61040567 -8.39790985 304.80627044 -9 303 C-9.66 303 -10.32 303 -11 303 C-11.4228125 302.01257813 -11.845625 301.02515625 -12.28125 300.0078125 C-12.85409582 298.67184462 -13.42701684 297.33590898 -14 296 C-14.28230469 295.3409668 -14.56460938 294.68193359 -14.85546875 294.00292969 C-15.73316224 291.95861872 -16.61617778 289.91666793 -17.5 287.875 C-17.94279297 286.84052734 -17.94279297 286.84052734 -18.39453125 285.78515625 C-20.03533583 282.00480033 -21.84335453 278.52067765 -24 275 C-24.74282676 273.09448787 -25.48237989 271.18717053 -26.171875 269.26171875 C-27.42645776 265.83528754 -28.83684361 262.47340459 -30.23046875 259.1015625 C-31 257 -31 257 -31 255 C-31.99 254.67 -32.98 254.34 -34 254 C-35.08740234 252.11743164 -35.08740234 252.11743164 -36.0859375 249.66015625 C-36.45976562 248.76103516 -36.83359375 247.86191406 -37.21875 246.93554688 C-37.6003125 245.98744141 -37.981875 245.03933594 -38.375 244.0625 C-41.00358268 237.6406006 -43.74032396 231.3565511 -46.89306641 225.17260742 C-50.07367005 218.92995373 -52.81224263 212.49185049 -55.4375 206 C-57.53271952 200.87538665 -60.04889945 196.13889061 -62.86328125 191.375 C-64 189 -64 189 -64 185 C-64.66 185 -65.32 185 -66 185 C-66.24234375 183.84886719 -66.4846875 182.69773437 -66.734375 181.51171875 C-67.90136699 176.85501124 -69.91204527 172.97845126 -72.25 168.8125 C-73.05855331 167.32821662 -73.86451983 165.84252135 -74.66796875 164.35546875 C-75.26037354 163.25984619 -75.26037354 163.25984619 -75.86474609 162.14208984 C-83 148.67870968 -83 148.67870968 -83 144 C-83.66 144 -84.32 144 -85 144 C-85 142.68 -85 141.36 -85 140 C-85.66 140 -86.32 140 -87 140 C-87.2784375 138.14375 -87.2784375 138.14375 -87.5625 136.25 C-88.74299121 130.8094753 -91.43102572 126.6404903 -94.31640625 121.9375 C-97.20974395 116.88926346 -98.62274703 111.60917574 -100 106 C-100.66 106 -101.32 106 -102 106 C-103.96512295 101.69069486 -105.89566943 97.39594352 -107.5 92.9375 C-108.45231725 90.29675 -109.56300818 87.94413526 -110.9375 85.5 C-118.79267824 69.88063014 -119.2908668 51.25301626 -114.16796875 34.78515625 C-113.05250959 32.12521517 -111.78853929 30.23814448 -110 28 C-109.731875 27.21625 -109.46375 26.4325 -109.1875 25.625 C-107.56288665 22.03374945 -105.08625237 19.44048761 -102 17 C-101.34 17 -100.68 17 -100 17 C-100 16.34 -100 15.68 -100 15 C-99.34 15 -98.68 15 -98 15 C-98 14.34 -98 13.68 -98 13 C-68.70761714 -2.91365031 -32.47892806 -7.80978844 0 0 Z " fill="#F46E13" transform="translate(179,223)"/>
<path d="M0 0 C-1.02815904 3.31295691 -2.00945204 4.0051041 -5.125 5.6875 C-9.02986772 7.20514817 -12.85040386 7.57073143 -17 8 C-17.33 8.33 -17.66 8.66 -18 9 C-20.33297433 9.04092937 -22.66705225 9.04241723 -25 9 C-25 9.66 -25 10.32 -25 11 C-40.28158783 13.96812443 -55.19912751 14.40729227 -70.73974609 14.28125 C-74.65341678 14.24977144 -78.56668321 14.24023031 -82.48046875 14.234375 C-85.00000488 14.225214 -87.51953696 14.21484112 -90.0390625 14.203125 C-91.19338776 14.19887512 -92.34771301 14.19462524 -93.53701782 14.19024658 C-100.08068849 14.13287919 -106.50312939 13.79383427 -113 13 C-113 12.67 -113 12.34 -113 12 C-112.30747635 12.00444122 -111.6149527 12.00888245 -110.90144348 12.01345825 C-104.27102327 12.05407349 -97.64063936 12.08425134 -91.01012135 12.10362434 C-87.60394153 12.11391996 -84.19786718 12.12780701 -80.79174805 12.15087891 C-53.10314648 12.77574149 -53.10314648 12.77574149 -26 8 C-23.0625 7.875 -23.0625 7.875 -21 8 C-21 7.34 -21 6.68 -21 6 C-20.13117188 5.81824219 -19.26234375 5.63648438 -18.3671875 5.44921875 C-12.86577364 4.24924593 -5.29516418 0 0 0 Z " fill="#F9B88B" transform="translate(463,804)"/>
<path d="M0 0 C0.99 0.495 0.99 0.495 2 1 C-12.46153846 14 -12.46153846 14 -17 14 C-17 14.66 -17 15.32 -17 16 C-17.78503906 16.19335938 -18.57007813 16.38671875 -19.37890625 16.5859375 C-20.42949219 16.84632813 -21.48007812 17.10671875 -22.5625 17.375 C-23.59503906 17.63023437 -24.62757813 17.88546875 -25.69140625 18.1484375 C-27.95318224 18.73057111 -30.19873754 19.37862064 -32.42578125 20.08203125 C-44.75426634 23.24836349 -58.44486861 20.85864757 -70 16 C-66.18243176 14.62567543 -62.92744671 15.32024961 -59 16 C-59 16.66 -59 17.32 -59 18 C-54.47845153 17.91875308 -49.95821516 17.80593693 -45.4375 17.6875 C-44.16068359 17.66494141 -42.88386719 17.64238281 -41.56835938 17.61914062 C-34.93913857 17.42973432 -29.86675761 17.13311488 -24 14 C-22.25339269 13.42705223 -20.50354636 12.8638451 -18.75 12.3125 C-11.5961283 9.76956082 -5.36016922 5.36016922 0 0 Z " fill="#FCDECA" transform="translate(359,712)"/>
<path d="M0 0 C3.45966778 1.72983389 4.51501573 5.55781889 6 9 C6.67258667 11.33163378 7.33847444 13.6652039 8 16 C9.21477442 19.01162825 10.48869737 21.99471149 11.765625 24.98046875 C13.15863453 28.38805218 14.28747124 31.8254389 15.32421875 35.35546875 C15.87660642 37.21218707 15.87660642 37.21218707 18 38 C18 39.65 18 41.3 18 43 C18.66 43 19.32 43 20 43 C20 44.65 20 46.3 20 48 C20.66 48 21.32 48 22 48 C22.66 52.29 23.32 56.58 24 61 C23.34 61 22.68 61 22 61 C21.5196682 59.41701974 21.04078388 57.83360022 20.5625 56.25 C20.29566406 55.36828125 20.02882813 54.4865625 19.75390625 53.578125 C19.11531506 51.39434165 18.53224167 49.21164502 18 47 C17.34 47 16.68 47 16 47 C15.71125 45.9275 15.4225 44.855 15.125 43.75 C14.18062368 40.18759512 14.18062368 40.18759512 12.875 37.8125 C12 36 12 36 12 32 C11.34 32 10.68 32 10 32 C10 30.35 10 28.7 10 27 C9.34 27 8.68 27 8 27 C7.7525 25.72125 7.505 24.4425 7.25 23.125 C6.25914545 18.63076686 4.72040961 14.54094543 2.953125 10.30078125 C0 3.17213115 0 3.17213115 0 0 Z " fill="#F8AC78" transform="translate(340,546)"/>
<path d="M0 0 C0 0.33 0 0.66 0 1 C-21.12 1 -42.24 1 -64 1 C-64 0.67 -64 0.34 -64 0 C-42.46691678 -3.80395161 -21.46579518 -4.60568785 0 0 Z " fill="#F69959" transform="translate(179,223)"/>
<path d="M0 0 C0.93312012 0.00410889 1.86624023 0.00821777 2.82763672 0.01245117 C33.25535052 0.25535052 33.25535052 0.25535052 39.125 6.125 C36.485 6.125 33.845 6.125 31.125 6.125 C31.125 5.465 31.125 4.805 31.125 4.125 C6.375 3.63 6.375 3.63 -18.875 3.125 C-12.51377665 -0.05561167 -6.98066138 -0.03683232 0 0 Z " fill="#F69A5A" transform="translate(632.875,219.875)"/>
<path d="M0 0 C1.55306 3.10611999 0.19660797 5.86751403 -0.6875 9.0625 C-0.96062012 10.07098999 -0.96062012 10.07098999 -1.23925781 11.09985352 C-2.70146606 16.3210405 -4.60601657 21.12653373 -7 26 C-7.66 26 -8.32 26 -9 26 C-8.938125 26.721875 -8.87625 27.44375 -8.8125 28.1875 C-9.03746621 31.56199315 -9.99869763 33.30593911 -12 36 C-12.66 36 -13.32 36 -14 36 C-14.99 39.96 -15.98 43.92 -17 48 C-17.66 48 -18.32 48 -19 48 C-18.938125 48.763125 -18.87625 49.52625 -18.8125 50.3125 C-19 53 -19 53 -20.5 54.8125 C-21.2425 55.4003125 -21.2425 55.4003125 -22 56 C-22 54.35 -22 52.7 -22 51 C-21.34 51 -20.68 51 -20 51 C-19.81050781 49.97132813 -19.81050781 49.97132813 -19.6171875 48.921875 C-18.92541989 45.64692454 -18.0628014 42.46324201 -17.125 39.25 C-16.79757812 38.10015625 -16.47015625 36.9503125 -16.1328125 35.765625 C-15.75898438 34.85296875 -15.38515625 33.9403125 -15 33 C-13.515 32.505 -13.515 32.505 -12 32 C-11.35012632 30.14208158 -11.35012632 30.14208158 -11 28 C-10.51655208 26.70204743 -10.01617936 25.4102866 -9.5 24.125 C-8.21323795 20.77314179 -7.44708218 17.57665748 -7 14 C-6.34 14 -5.68 14 -5 14 C-4.896875 13.34 -4.79375 12.68 -4.6875 12 C-2.51351351 2.51351351 -2.51351351 2.51351351 0 0 Z " fill="#F9B689" transform="translate(484,440)"/>
<path d="M0 0 C0.33 0.66 0.66 1.32 1 2 C1.99 2.33 2.98 2.66 4 3 C4 3.66 4 4.32 4 5 C4.51433594 5.09539063 5.02867187 5.19078125 5.55859375 5.2890625 C8.91600347 6.26674021 11.94964888 7.81049331 15.0625 9.375 C15.68705078 9.67921875 16.31160156 9.9834375 16.95507812 10.296875 C20.23798675 11.9365775 22.36696764 13.36696764 25 16 C22.03 15.34 19.06 14.68 16 14 C16.33 14.99 16.66 15.98 17 17 C13.6092481 15.54682061 11.58699688 13.58699688 9 11 C8.01 10.67 7.02 10.34 6 10 C6.33 11.65 6.66 13.3 7 15 C4.69145075 12.87666387 3.21587424 10.86387158 1.8125 8.0625 C1.29623047 7.05896484 1.29623047 7.05896484 0.76953125 6.03515625 C0 4 0 4 0 0 Z " fill="#F8AE7B" transform="translate(247,694)"/>
<path d="M0 0 C2.87816115 3.22165129 3.39121907 5.33704881 3.43359375 9.62109375 C3.44471191 10.71574951 3.45583008 11.81040527 3.46728516 12.93823242 C3.45745605 14.09299072 3.44762695 15.24774902 3.4375 16.4375 C3.43282715 17.61223877 3.4281543 18.78697754 3.42333984 19.99731445 C3.27946632 28.42561281 2.25287059 35.19311059 -1 43 C-1.39578725 44.39008206 -1.77445625 45.78532499 -2.125 47.1875 C-3 50 -3 50 -5 52 C-4.67 48.7 -4.34 45.4 -4 42 C-3.34 42 -2.68 42 -2 42 C0.3661082 28.01461045 0.2105262 14.14736081 0 0 Z " fill="#F69857" transform="translate(715,261)"/>
<path d="M0 0 C0 3.43475941 -0.8407224 5.35061239 -2.1875 8.5 C-2.63867188 9.55703125 -3.08984375 10.6140625 -3.5546875 11.703125 C-5.65391147 16.49162509 -7.80485565 21.2547518 -10 26 C-10.66 26 -11.32 26 -12 26 C-12.061875 26.763125 -12.12375 27.52625 -12.1875 28.3125 C-13.34487791 33.56521514 -15.67197995 38.1721503 -18 43 C-18.66 43 -19.32 43 -20 43 C-20.12246094 43.57234375 -20.24492188 44.1446875 -20.37109375 44.734375 C-21.02762868 47.09953191 -21.93723512 49.07206797 -23.0625 51.25 C-23.42472656 51.95640625 -23.78695312 52.6628125 -24.16015625 53.390625 C-24.43730469 53.92171875 -24.71445312 54.4528125 -25 55 C-26.24546405 52.50907189 -25.7767578 51.58919267 -25 49 C-24.34 49 -23.68 49 -23 49 C-23 47.68 -23 46.36 -23 45 C-22.34 45 -21.68 45 -21 45 C-21 43.68 -21 42.36 -21 41 C-20.34 41 -19.68 41 -19 41 C-18.81824219 40.43152344 -18.63648438 39.86304688 -18.44921875 39.27734375 C-16.85915366 34.39298997 -15.09540222 29.68970973 -13 25 C-12.34 25 -11.68 25 -11 25 C-10.85691406 24.42765625 -10.71382812 23.8553125 -10.56640625 23.265625 C-9.7109375 19.84375 -8.85546875 16.421875 -8 13 C-7.34 13 -6.68 13 -6 13 C-6 11.68 -6 10.36 -6 9 C-5.34 9 -4.68 9 -4 9 C-3.896875 8.443125 -3.79375 7.88625 -3.6875 7.3125 C-2.86866423 4.55823422 -1.54146219 2.41272343 0 0 Z " fill="#F79D60" transform="translate(611,518)"/>
<path d="M0 0 C0.66 0 1.32 0 2 0 C2 1.65 2 3.3 2 5 C2.99 5.33 3.98 5.66 5 6 C5.6953125 7.92578125 5.6953125 7.92578125 6.125 10.3125 C6.27195312 11.09238281 6.41890625 11.87226563 6.5703125 12.67578125 C6.71210938 13.44277344 6.85390625 14.20976562 7 15 C7.3231499 16.33583795 7.65307929 17.67013726 8 19 C8.66 19 9.32 19 10 19 C10 20.65 10 22.3 10 24 C10.66 24 11.32 24 12 24 C12 25.65 12 27.3 12 29 C12.66 29 13.32 29 14 29 C14 30.65 14 32.3 14 34 C14.66 34 15.32 34 16 34 C16.33 36.97 16.66 39.94 17 43 C14.95894452 39.93841678 13.94396184 37.19240849 12.78125 33.7421875 C12.13213728 31.80226108 12.13213728 31.80226108 10 31 C7.65221302 26.58063627 7.40576461 21.90120939 7 17 C6.34 17 5.68 17 5 17 C3.29304267 11.34428139 1.60665302 5.68507992 0 0 Z " fill="#F9BF97" transform="translate(297,435)"/>
<path d="M0 0 C2.68125418 2.38246339 4.11423459 4.8545504 5.6875 8.0625 C6.12449219 8.94035156 6.56148438 9.81820312 7.01171875 10.72265625 C8 13 8 13 8 15 C8.66 15 9.32 15 10 15 C10 16.32 10 17.64 10 19 C10.66 19 11.32 19 12 19 C12 20.32 12 21.64 12 23 C12.66 23 13.32 23 14 23 C14 24.32 14 25.64 14 27 C14.66 27 15.32 27 16 27 C16 28.32 16 29.64 16 31 C16.66 31 17.32 31 18 31 C18 32.32 18 33.64 18 35 C18.66 35 19.32 35 20 35 C20.33 38.3 20.66 41.6 21 45 C17.86591489 41.86591489 17.44700155 40.25204105 16.5390625 36.05859375 C16.00520186 33.73137516 16.00520186 33.73137516 14.375 30.75 C13 28 13 28 13 24 C12.34 24 11.68 24 11 24 C9 21 9 21 9 17 C8.34 17 7.68 17 7 17 C5.82866942 14.54379149 4.66278278 12.08525083 3.5 9.625 C3.16613281 8.92632813 2.83226562 8.22765625 2.48828125 7.5078125 C0 2.2265625 0 2.2265625 0 0 Z " fill="#F8B07E" transform="translate(257,718)"/>
<path d="M0 0 C3.19496956 0.49921399 6.1982808 1.32665761 9.25 2.375 C9.93578125 2.60960937 10.6215625 2.84421875 11.328125 3.0859375 C13 4 13 4 14 7 C14.7113208 7.11069824 15.4226416 7.22139648 16.15551758 7.33544922 C19.37576608 7.84098852 22.59409584 8.35785472 25.8125 8.875 C26.93205078 9.04902344 28.05160156 9.22304688 29.20507812 9.40234375 C30.81479492 9.66337891 30.81479492 9.66337891 32.45703125 9.9296875 C33.44678955 10.08679199 34.43654785 10.24389648 35.45629883 10.40576172 C38 11 38 11 41 13 C37.66495276 12.74815329 34.3325765 12.47003486 31 12.1875 C30.06542969 12.11724609 29.13085938 12.04699219 28.16796875 11.97460938 C22.24331999 11.4567205 17.46251005 10.36152181 12 8 C11.21109375 7.66097656 10.4221875 7.32195313 9.609375 6.97265625 C5.77230903 5.09442858 2.83031066 3.3020291 0 0 Z " fill="#FBD2B7" transform="translate(309,803)"/>
<path d="M0 0 C0 3 0 3 -1 6 C-1.66 6 -2.32 6 -3 6 C-3.1546875 7.2375 -3.1546875 7.2375 -3.3125 8.5 C-3.9831361 11.9141474 -5.03217603 14.81332455 -6.30078125 18.03125 C-7.22894426 20.64462519 -7.65682392 23.25459138 -8 26 C-8.66 26 -9.32 26 -10 26 C-10.11472656 26.68578125 -10.22945312 27.3715625 -10.34765625 28.078125 C-11.09880722 31.4425617 -12.20969357 34.52928521 -13.4375 37.75 C-13.86933594 38.89984375 -14.30117188 40.0496875 -14.74609375 41.234375 C-16 44 -16 44 -18 45 C-17.45961905 41.43348572 -16.35334308 38.47965129 -14.87890625 35.203125 C-13.77344111 32.43209239 -12.96290068 29.61311 -12.125 26.75 C-10.51667284 21.36614035 -8.5038508 16.39028106 -6.05078125 11.33984375 C-5.09907205 9.22061024 -4.47640992 7.26687357 -4 5 C-3.34 5 -2.68 5 -2 5 C-2 3.68 -2 2.36 -2 1 C-1.34 0.67 -0.68 0.34 0 0 Z " fill="#FBD1B5" transform="translate(524,343)"/>
<path d="M0 0 C0.68359375 1.640625 0.68359375 1.640625 1 4 C-0.21484375 6.796875 -0.21484375 6.796875 -1.9375 9.75 C-2.50339844 10.73484375 -3.06929687 11.7196875 -3.65234375 12.734375 C-4.09707031 13.48203125 -4.54179688 14.2296875 -5 15 C-5.66 15 -6.32 15 -7 15 C-7.33 17.97 -7.66 20.94 -8 24 C-8.66 24 -9.32 24 -10 24 C-10 24.99 -10 25.98 -10 27 C-10.66 27 -11.32 27 -12 27 C-12.12246094 27.57234375 -12.24492188 28.1446875 -12.37109375 28.734375 C-13.02762868 31.09953191 -13.93723512 33.07206797 -15.0625 35.25 C-15.42472656 35.95640625 -15.78695312 36.6628125 -16.16015625 37.390625 C-16.43730469 37.92171875 -16.71445312 38.4528125 -17 39 C-17.33 39 -17.66 39 -18 39 C-18 37.35 -18 35.7 -18 34 C-17.34 34 -16.68 34 -16 34 C-16 32.68 -16 31.36 -16 30 C-15.34 29.67 -14.68 29.34 -14 29 C-13.21984379 27.17489003 -12.52204594 25.31393324 -11.875 23.4375 C-11.34519531 21.91962891 -11.34519531 21.91962891 -10.8046875 20.37109375 C-10.53914062 19.58863281 -10.27359375 18.80617188 -10 18 C-9.34 18 -8.68 18 -8 18 C-7.896875 17.30390625 -7.79375 16.6078125 -7.6875 15.890625 C-6.88922694 12.53424962 -5.57190974 9.81824689 -4 6.75 C-3.46375 5.69296875 -2.9275 4.6359375 -2.375 3.546875 C-1 1 -1 1 0 0 Z " fill="#F79D60" transform="translate(579,585)"/>
<path d="M0 0 C0.66 0 1.32 0 2 0 C3.66666667 5 5.33333333 10 7 15 C7.66 15 8.32 15 9 15 C9 16.65 9 18.3 9 20 C9.66 20 10.32 20 11 20 C11 21.32 11 22.64 11 24 C11.66 24 12.32 24 13 24 C13.69635753 26.28931274 14.38234377 28.5808757 15.0625 30.875 C15.26166016 31.52597656 15.46082031 32.17695312 15.66601562 32.84765625 C17.11328125 37.7734375 17.11328125 37.7734375 16 40 C11.40774487 30.77448747 11.40774487 30.77448747 12 25 C10.68 24.67 9.36 24.34 8 24 C7.34 20.7 6.68 17.4 6 14 C5.34 14 4.68 14 4 14 C0.74031891 4.58997722 0.74031891 4.58997722 0 0 Z " fill="#F8A872" transform="translate(190,570)"/>
<path d="M0 0 C1.0010376 0.16298584 2.0020752 0.32597168 3.03344727 0.49389648 C6.90017761 0.98726338 10.56950283 1.11381949 14.46484375 1.09765625 C15.14301651 1.0962413 15.82118927 1.09482635 16.51991272 1.09336853 C18.65915578 1.08782745 20.79828925 1.07528653 22.9375 1.0625 C24.39908702 1.05747736 25.86067569 1.0529158 27.32226562 1.04882812 C30.88154526 1.03787745 34.44076191 1.02065445 38 1 C36.88574219 2.47509766 36.88574219 2.47509766 35 4 C32.20019531 4.38818359 32.20019531 4.38818359 28.828125 4.3984375 C27.60609375 4.40230469 26.3840625 4.40617188 25.125 4.41015625 C23.84625 4.39855469 22.5675 4.38695312 21.25 4.375 C19.98671875 4.38660156 18.7234375 4.39820313 17.421875 4.41015625 C10.8847665 4.38955612 5.74474411 4.25076837 0 1 C0 0.67 0 0.34 0 0 Z " fill="#FBDAC2" transform="translate(279,712)"/>
<path d="M0 0 C1 2 1 2 0.00390625 5.0390625 C-0.47175781 6.22242188 -0.94742188 7.40578125 -1.4375 8.625 C-2.14712891 10.40777344 -2.14712891 10.40777344 -2.87109375 12.2265625 C-3.24363281 13.14179687 -3.61617187 14.05703125 -4 15 C-4.66 15 -5.32 15 -6 15 C-6 15.99 -6 16.98 -6 18 C-6.66 18 -7.32 18 -8 18 C-8 19.32 -8 20.64 -8 22 C-8.66 22 -9.32 22 -10 22 C-9.95875 22.9075 -9.9175 23.815 -9.875 24.75 C-9.99531556 27.8782046 -10.3914708 29.38614006 -12 32 C-12.66 32 -13.32 32 -14 32 C-14.33 33.32 -14.66 34.64 -15 36 C-16 34 -16 34 -15.44140625 31.8359375 C-15.00634766 30.61777344 -15.00634766 30.61777344 -14.5625 29.375 C-14.27503906 28.55773437 -13.98757813 27.74046875 -13.69140625 26.8984375 C-13.46324219 26.27195312 -13.23507812 25.64546875 -13 25 C-12.34 25 -11.68 25 -11 25 C-11 23.68 -11 22.36 -11 21 C-10.34 21 -9.68 21 -9 21 C-9 19.68 -9 18.36 -9 17 C-8.34 17 -7.68 17 -7 17 C-6.87625 15.948125 -6.7525 14.89625 -6.625 13.8125 C-6.08859218 10.54041229 -5.36119965 7.99463924 -4 5 C-3.34 5 -2.68 5 -2 5 C-2 3.68 -2 2.36 -2 1 C-1.34 0.67 -0.68 0.34 0 0 Z " fill="#F8B282" transform="translate(539,669)"/>
<path d="M0 0 C0.66 0.33 1.32 0.66 2 1 C0.61087093 2.7553265 -0.78661773 4.50403907 -2.1875 6.25 C-2.96480469 7.22453125 -3.74210937 8.1990625 -4.54296875 9.203125 C-6.85618602 11.83629443 -9.2630298 13.83323192 -12 16 C-12.86965506 18.12946603 -12.86965506 18.12946603 -13 20 C-13.99 20 -14.98 20 -16 20 C-14.83439316 13.65391834 -12.11220904 9.96678485 -7 6 C-6.34 6 -5.68 6 -5 6 C-5 5.34 -5 4.68 -5 4 C-4.34 4 -3.68 4 -3 4 C-3 3.34 -3 2.68 -3 2 C-2.01 1.34 -1.02 0.68 0 0 Z " fill="#F7A46B" transform="translate(84,234)"/>
<path d="M0 0 C1.485 0.99 1.485 0.99 3 2 C3.1875 4.625 3.1875 4.625 3 7 C3.99 7.33 4.98 7.66 6 8 C6.33 10.64 6.66 13.28 7 16 C7.66 16 8.32 16 9 16 C9 17.65 9 19.3 9 21 C9.66 21 10.32 21 11 21 C11 22.65 11 24.3 11 26 C11.66 26 12.32 26 13 26 C13 27.98 13 29.96 13 32 C8.1329889 26.20593917 6.27508494 18.96589752 4.0625 11.8671875 C3.09040919 8.95150925 3.09040919 8.95150925 1.375 6.3828125 C0 4 0 4 0 0 Z " fill="#FAC8A6" transform="translate(279,390)"/>
<path d="M0 0 C0.66 0.33 1.32 0.66 2 1 C1.59007812 1.4846875 1.18015625 1.969375 0.7578125 2.46875 C-3.08883387 7.25405171 -4.92042194 10.95436287 -6 17 C-6.66 17 -7.32 17 -8 17 C-8.66 18.98 -9.32 20.96 -10 23 C-10.66 23 -11.32 23 -12 23 C-12.10957031 23.59167969 -12.21914063 24.18335938 -12.33203125 24.79296875 C-13.25914403 29.41345763 -14.22351335 33.0876779 -17 37 C-18 35 -18 35 -17.14453125 32.20703125 C-14.77566847 26.17025191 -12.3328086 20.554681 -9 15 C-8.54625 13.865625 -8.0925 12.73125 -7.625 11.5625 C-5.6372786 7.20480309 -2.98483866 3.71897373 0 0 Z " fill="#F9C19A" transform="translate(566,249)"/>
<path d="M0 0 C0.66 0.33 1.32 0.66 2 1 C1.67 2.32 1.34 3.64 1 5 C0.34 5 -0.32 5 -1 5 C-1.0825 5.763125 -1.165 6.52625 -1.25 7.3125 C-3.30482305 17.41537997 -7.97092683 26.1143623 -13 35 C-14 33 -14 33 -13.14453125 30.20703125 C-9.11231152 19.93137453 -9.11231152 19.93137453 -6.75 16 C-5.11826131 13.20273367 -4.38602186 11.18468037 -4 8 C-3.34 8 -2.68 8 -2 8 C-1.7834375 6.576875 -1.7834375 6.576875 -1.5625 5.125 C-1 2 -1 2 0 0 Z " fill="#F8B07F" transform="translate(649,436)"/>
<path d="M0 0 C1.46509815 2.9301963 0.4949713 4.74461363 -0.3125 7.875 C-0.70888672 9.44894531 -0.70888672 9.44894531 -1.11328125 11.0546875 C-1.8713848 13.57279357 -2.73204805 15.70772005 -4 18 C-4.66 18 -5.32 18 -6 18 C-6.103125 18.7425 -6.20625 19.485 -6.3125 20.25 C-7.04253504 23.17014018 -8.06789398 24.73187554 -10 27 C-9.67 24.69 -9.34 22.38 -9 20 C-8.34 20 -7.68 20 -7 20 C-6.95101563 19.40832031 -6.90203125 18.81664062 -6.8515625 18.20703125 C-6.43543133 13.80895528 -5.95034405 10.03071103 -4 6 C-3.01 6 -2.02 6 -1 6 C-1.020625 5.195625 -1.04125 4.39125 -1.0625 3.5625 C-1 1 -1 1 0 0 Z " fill="#F9C19B" transform="translate(435,559)"/>
<path d="M0 0 C0.33 1.32 0.66 2.64 1 4 C0.34 4 -0.32 4 -1 4 C-1 5.32 -1 6.64 -1 8 C-1.66 8 -2.32 8 -3 8 C-3 9.32 -3 10.64 -3 12 C-3.66 12 -4.32 12 -5 12 C-5.061875 12.763125 -5.12375 13.52625 -5.1875 14.3125 C-6.15973187 18.72493694 -7.90882804 22.44500777 -9.84375 26.51171875 C-11.07748831 29.0441306 -11.07748831 29.0441306 -12 32 C-12.66 32 -13.32 32 -14 32 C-14.33 32.66 -14.66 33.32 -15 34 C-14.67 31.69 -14.34 29.38 -14 27 C-13.34 27 -12.68 27 -12 27 C-12 25.68 -12 24.36 -12 23 C-11.34 23 -10.68 23 -10 23 C-10 21.68 -10 20.36 -10 19 C-9.34 19 -8.68 19 -8 19 C-8 17.68 -8 16.36 -8 15 C-7.34 15 -6.68 15 -6 15 C-6 13.68 -6 12.36 -6 11 C-5.34 11 -4.68 11 -4 11 C-4 9.68 -4 8.36 -4 7 C-3.34 7 -2.68 7 -2 7 C-2 5.68 -2 4.36 -2 3 C-1.34 3 -0.68 3 0 3 C0 2.01 0 1.02 0 0 Z " fill="#F69655" transform="translate(666,401)"/>
<path d="M0 0 C0.99 0.495 0.99 0.495 2 1 C2.59896093 3.30710878 2.95654965 5.61688718 3.33984375 7.96875 C3.55769531 8.6390625 3.77554687 9.309375 4 10 C4.99 10.33 5.98 10.66 7 11 C7 12.32 7 13.64 7 15 C7.66 15 8.32 15 9 15 C9.33 18.3 9.66 21.6 10 25 C10.99 25.33 11.98 25.66 13 26 C13.66 29.63 14.32 33.26 15 37 C14.34 37 13.68 37 13 37 C12.81824219 36.38253906 12.63648438 35.76507813 12.44921875 35.12890625 C11.16628712 30.80641351 9.84876459 26.51157544 8.375 22.25 C7.22389428 18.85695015 6.45705842 15.56505567 6 12 C5.01 11.67 4.02 11.34 3 11 C2.05078125 8.49609375 2.05078125 8.49609375 1.3125 5.4375 C1.06113281 4.42558594 0.80976563 3.41367187 0.55078125 2.37109375 C0.36902344 1.58863281 0.18726563 0.80617188 0 0 Z " fill="#FACCAC" transform="translate(253,324)"/>
<path d="M0 0 C0.66 0 1.32 0 2 0 C2.63032133 1.20556604 3.2539497 2.41463189 3.875 3.625 C4.22304687 4.29789062 4.57109375 4.97078125 4.9296875 5.6640625 C6 8 6 8 6.90234375 10.8203125 C8.39904703 15.15595831 10.54277943 19.1066934 12.69726562 23.140625 C13.52211395 24.73201636 14.26792951 26.36385391 15 28 C14.67 28.66 14.34 29.32 14 30 C11.75523262 27.94649436 10.44530117 26.18771136 9.28125 23.3828125 C8.98863281 22.69316406 8.69601563 22.00351562 8.39453125 21.29296875 C8.09933594 20.57753906 7.80414063 19.86210937 7.5 19.125 C5.58137614 14.52532969 3.57556307 10.27741005 1 6 C0.3125 2.6875 0.3125 2.6875 0 0 Z " fill="#FACBAB" transform="translate(77,329)"/>
<path d="M0 0 C5.48876067 0.35034643 9.09317738 1.90652423 13.7890625 4.74609375 C15.98731762 6.07521018 15.98731762 6.07521018 18.50390625 6.90234375 C21.45057879 8.19814185 23.10147074 9.80154552 25.3125 12.125 C26.00988281 12.84945312 26.70726562 13.57390625 27.42578125 14.3203125 C28.20501953 15.15175781 28.20501953 15.15175781 29 16 C28.67 16.66 28.34 17.32 28 18 C27.60167969 17.57847656 27.20335937 17.15695313 26.79296875 16.72265625 C26.26316406 16.17480469 25.73335937 15.62695312 25.1875 15.0625 C24.66542969 14.51722656 24.14335938 13.97195312 23.60546875 13.41015625 C21.94187802 11.76480908 21.94187802 11.76480908 19 11 C19 10.34 19 9.68 19 9 C16.03 8.505 16.03 8.505 13 8 C13 7.34 13 6.68 13 6 C11.68 6 10.36 6 9 6 C9 5.34 9 4.68 9 4 C7.68 4 6.36 4 5 4 C5 3.34 5 2.68 5 2 C3.35 2 1.7 2 0 2 C0 1.34 0 0.68 0 0 Z " fill="#F69451" transform="translate(678,228)"/>
<path d="M0 0 C0.33 0.66 0.66 1.32 1 2 C-1.33074182 8.91772687 -4.63595135 15.53067568 -8 22 C-8.5775 23.155 -9.155 24.31 -9.75 25.5 C-10.36875 26.7375 -10.36875 26.7375 -11 28 C-12 26 -12 26 -11.36328125 23.53125 C-11.01652344 22.5309375 -10.66976562 21.530625 -10.3125 20.5 C-9.94253906 19.43265625 -9.57257812 18.3653125 -9.19140625 17.265625 C-7.56250819 12.80084211 -5.82508434 8.38796873 -4 4 C-3.01 4 -2.02 4 -1 4 C-0.67 2.68 -0.34 1.36 0 0 Z " fill="#FAC7A5" transform="translate(537,312)"/>
<path d="M0 0 C0.66 0 1.32 0 2 0 C1.05066101 3.35433109 0.10251165 6.69246505 -1 10 C-1.66 10 -2.32 10 -3 10 C-3.11472656 10.69351562 -3.22945313 11.38703125 -3.34765625 12.1015625 C-4.08044205 15.35741316 -5.19767862 18.27728604 -6.4375 21.375 C-8.20866573 25.88481793 -9.79981207 30.30835627 -11 35 C-12.3609623 32.2780754 -11.70366248 30.8168043 -11.0625 27.875 C-10.86785156 26.96492187 -10.67320312 26.05484375 -10.47265625 25.1171875 C-10.23869141 24.06917969 -10.23869141 24.06917969 -10 23 C-9.34 23 -8.68 23 -8 23 C-8 21.35 -8 19.7 -8 18 C-7.34 18 -6.68 18 -6 18 C-5.87625 17.30390625 -5.7525 16.6078125 -5.625 15.890625 C-4.94704416 12.75507922 -4.01879665 9.79140763 -3 6.75 C-2.649375 5.69296875 -2.29875 4.6359375 -1.9375 3.546875 C-1 1 -1 1 0 0 Z " fill="#FBD9C1" transform="translate(460,496)"/>
<path d="M0 0 C2 1 2 1 3.125 3.3125 C4 6 4 6 4 10 C4.66 10 5.32 10 6 10 C6.18175781 10.83144531 6.36351562 11.66289062 6.55078125 12.51953125 C6.80214844 13.60621094 7.05351562 14.69289063 7.3125 15.8125 C7.55613281 16.89144531 7.79976563 17.97039062 8.05078125 19.08203125 C9.01584404 22.04870575 9.82803448 22.92456629 12 25 C12.1875 28.6875 12.1875 28.6875 12 32 C8.34163987 30.17081993 7.36515371 25.68761437 6 22 C5.42290389 19.69538745 4.95261991 17.39039451 4.5 15.05859375 C4.02046161 12.74994133 4.02046161 12.74994133 2.4375 9.875 C0.78271758 6.56543515 0.36607631 3.66076307 0 0 Z " fill="#F8B07E" transform="translate(314,478)"/>
<path d="M0 0 C0 3.94784456 -1.37641698 7.17052386 -2.75 10.8125 C-3.00265625 11.51181641 -3.2553125 12.21113281 -3.515625 12.93164062 C-5.18452444 17.39177438 -7.21320528 21.09962952 -10 25 C-11.01059521 26.66026356 -12.01453001 28.32470102 -13 30 C-13.33 29.34 -13.66 28.68 -14 28 C-13.06421005 25.64018187 -12.06652192 23.30368736 -11 21 C-10.34 21 -9.68 21 -9 21 C-8.9071875 19.98679687 -8.814375 18.97359375 -8.71875 17.9296875 C-7.94687085 13.70952213 -6.59841038 10.84881841 -4.5 7.125 C-3.55640625 5.42730469 -3.55640625 5.42730469 -2.59375 3.6953125 C-1 1 -1 1 0 0 Z " fill="#F79C5D" transform="translate(628,482)"/>
<path d="M0 0 C0.99 0.495 0.99 0.495 2 1 C2.66666667 3 3.33333333 5 4 7 C4.66 7.33 5.32 7.66 6 8 C7.43508565 14.04124766 7.13327249 19.22761562 5 25 C4.34 25 3.68 25 3 25 C3.03480469 24.09378906 3.06960938 23.18757812 3.10546875 22.25390625 C3.25393764 15.57280622 3.18743657 9.90609378 0.65625 3.671875 C0 2 0 2 0 0 Z " fill="#F7A46A" transform="translate(374,634)"/>
<path d="M0 0 C0.66 0.33 1.32 0.66 2 1 C1.74605469 1.61746094 1.49210938 2.23492187 1.23046875 2.87109375 C-1.06550731 8.52074269 -3.13606967 14.19450999 -5 20 C-5.33 20.99 -5.66 21.98 -6 23 C-6.99 23.33 -7.98 23.66 -9 24 C-7.47876489 15.47186377 -4.02630027 7.62121123 0 0 Z " fill="#F79D60" transform="translate(698,333)"/>
<path d="M0 0 C0 0.66 0 1.32 0 2 C-1.2065625 2.4640625 -1.2065625 2.4640625 -2.4375 2.9375 C-4.89080405 3.76335345 -4.89080405 3.76335345 -6 5 C-11.52966262 6.02724958 -16.94854781 6.18308998 -22.5625 6.1875 C-23.7990332 6.20586914 -23.7990332 6.20586914 -25.06054688 6.22460938 C-29.78157663 6.23593079 -33.56131799 5.82007544 -38 4 C-34.98968256 3.06576355 -34.13349732 2.95550089 -31 4 C-21.54819671 4.67512881 -13.49713407 4.09823153 -4.4765625 0.875 C-2 0 -2 0 0 0 Z " fill="#F69959" transform="translate(338,728)"/>
<path d="M0 0 C0.66 0.33 1.32 0.66 2 1 C-6.2095968 10.5344885 -6.2095968 10.5344885 -10 14 C-10.66 14 -11.32 14 -12 14 C-12.268125 14.61875 -12.53625 15.2375 -12.8125 15.875 C-14 18 -14 18 -17 20 C-13.3306278 11.9162054 -6.87248986 5.44072114 0 0 Z " fill="#F58030" transform="translate(580,237)"/>
<path d="M0 0 C0.95465783 2.16967689 1.14401212 3.56328793 0.3984375 5.82421875 C-0.35870385 7.5684743 -1.17609198 9.28627131 -2 11 C-2.66 11 -3.32 11 -4 11 C-3.95875 12.093125 -3.9175 13.18625 -3.875 14.3125 C-4 18 -4 18 -6 21 C-6.66 21 -7.32 21 -8 21 C-8 22.65 -8 24.3 -8 26 C-8.66 26 -9.32 26 -10 26 C-8.67564683 21.22744617 -7.21111001 16.54862961 -5.5625 11.875 C-5.15128906 10.69679688 -4.74007813 9.51859375 -4.31640625 8.3046875 C-3.11808185 5.296431 -1.75524504 2.71218621 0 0 Z " fill="#F7A46A" transform="translate(426,584)"/>
<path d="M0 0 C2.90402383 2.48916328 4.09109964 5.12869443 5.5625 8.625 C6.95393782 12.56210388 6.95393782 12.56210388 10 15 C10 16.98 10 18.96 10 21 C4.46407791 16.57126233 2.15037739 10.65244411 0 4 C0 2.68 0 1.36 0 0 Z " fill="#F9B98C" transform="translate(169,526)"/>
<path d="M0 0 C0.81606142 2.83352447 1.09281554 5.25310862 0.9921875 8.1953125 C0.97357666 8.98929443 0.95496582 9.78327637 0.93579102 10.60131836 C0.91572998 11.4341333 0.89566895 12.26694824 0.875 13.125 C0.77721445 19.54422652 0.97811394 25.05751459 3.44140625 31.08984375 C4.12270904 33.41961343 3.65361081 34.70207025 3 37 C-1.15172565 29.7148301 -1.52975704 23.39042341 -1.3125 15.125 C-1.30283203 13.99835938 -1.29316406 12.87171875 -1.28320312 11.7109375 C-1.17040802 3.51122407 -1.17040802 3.51122407 0 0 Z " fill="#FBDAC4" transform="translate(62,265)"/>
<path d="M0 0 C6.2049038 0.2757735 10.10160999 1.10640794 15 5 C11.23375329 6.25541557 9.62811066 5.37061958 6 4 C6.33 4.99 6.66 5.98 7 7 C4.13302508 5.71480435 2.02392288 4.42870746 0 2 C0 1.34 0 0.68 0 0 Z " fill="#FACEB0" transform="translate(257,704)"/>
<path d="M0 0 C0 0.33 0 0.66 0 1 C-1.11375 1.12375 -2.2275 1.2475 -3.375 1.375 C-7.03103677 1.6465813 -7.03103677 1.6465813 -9 4 C-10.62703017 4.55815786 -12.27693868 5.05133145 -13.9375 5.5 C-17.19307756 6.38221837 -19.14636776 7.09757851 -22 9 C-24.1875 8.625 -24.1875 8.625 -26 8 C-20.5 4 -20.5 4 -16 4 C-16 3.34 -16 2.68 -16 2 C-10.42932723 0.40837921 -5.78898419 -0.20674944 0 0 Z " fill="#F69C5D" transform="translate(614,223)"/>
<path d="M0 0 C2.34601486 2.13274079 3.86264449 4.02537789 5 7 C5.125 9.75 5.125 9.75 5 12 C5.99 12 6.98 12 8 12 C8.33 15.63 8.66 19.26 9 23 C6.66583859 19.49875789 5.06660239 15.90298753 3.375 12.0625 C2.88773437 10.98838867 2.88773437 10.98838867 2.390625 9.89257812 C2.08382813 9.19712891 1.77703125 8.50167969 1.4609375 7.78515625 C1.18040527 7.15488525 0.89987305 6.52461426 0.61083984 5.87524414 C0 4 0 4 0 0 Z " fill="#F9C19B" transform="translate(326,510)"/>
<path d="M0 0 C0.93423645 3.01031744 1.04449911 3.86650268 0 7 C-0.66 7 -1.32 7 -2 7 C-2 8.65 -2 10.3 -2 12 C-2.66 12 -3.32 12 -4 12 C-3.938125 12.763125 -3.87625 13.52625 -3.8125 14.3125 C-4.04219924 17.60485577 -4.70359977 17.78865163 -7 20 C-8.142525 22.29019651 -9.05568695 24.61673372 -10 27 C-10.33 27 -10.66 27 -11 27 C-11 25.35 -11 23.7 -11 22 C-10.34 22 -9.68 22 -9 22 C-8.80857422 21.12214844 -8.80857422 21.12214844 -8.61328125 20.2265625 C-8.01659325 18.06024302 -7.2428363 16.35112772 -6.1875 14.375 C-3.7865579 9.71383035 -1.8833943 4.88881074 0 0 Z " fill="#F7A268" transform="translate(496,413)"/>
<path d="M0 0 C2.15377564 2.62198774 3.40072174 4.64404172 4 8 C4.66 8 5.32 8 6 8 C6.33 9.98 6.66 11.96 7 14 C7.66 14 8.32 14 9 14 C9 15.32 9 16.64 9 18 C9.66 18 10.32 18 11 18 C11 19.65 11 21.3 11 23 C8.10674103 19.42221604 5.98032867 15.53772791 3.8125 11.5 C3.44447266 10.83613281 3.07644531 10.17226563 2.69726562 9.48828125 C0.81460426 5.98841726 0 4.05400821 0 0 Z " fill="#F7A063" transform="translate(179,547)"/>
<path d="M0 0 C4.07611772 3.63545634 6.21436246 6.83104924 8 12 C8 13.32 8 14.64 8 16 C8.66 16 9.32 16 10 16 C10 17.32 10 18.64 10 20 C10.66 20 11.32 20 12 20 C12 21.65 12 23.3 12 25 C9.19654394 21.3045352 6.86733378 18.00172215 5.4375 13.5625 C5.06431641 12.41974609 5.06431641 12.41974609 4.68359375 11.25390625 C4.05483784 9.1808082 3.50383917 7.10652757 3 5 C2.34 5 1.68 5 1 5 C0.67 3.35 0.34 1.7 0 0 Z " fill="#F58A41" transform="translate(76,324)"/>
<path d="M0 0 C0.33 0.66 0.66 1.32 1 2 C0.67 2.99 0.34 3.98 0 5 C-0.66 5 -1.32 5 -2 5 C-2 6.65 -2 8.3 -2 10 C-2.66 10 -3.32 10 -4 10 C-4 11.32 -4 12.64 -4 14 C-4.66 14 -5.32 14 -6 14 C-6.33 15.98 -6.66 17.96 -7 20 C-7.99 20.33 -8.98 20.66 -10 21 C-9.67 19.02 -9.34 17.04 -9 15 C-8.34 15 -7.68 15 -7 15 C-6.67 12.69 -6.34 10.38 -6 8 C-5.01 8 -4.02 8 -3 8 C-3 6.68 -3 5.36 -3 4 C-2.34 4 -1.68 4 -1 4 C-0.67 2.68 -0.34 1.36 0 0 Z " fill="#F8A972" transform="translate(688,357)"/>
<path d="M0 0 C3 3.75 3 3.75 3 6 C3.66 6 4.32 6 5 6 C5 7.65 5 9.3 5 11 C5.66 11 6.32 11 7 11 C7 12.65 7 14.3 7 16 C7.66 16 8.32 16 9 16 C9.33 18.64 9.66 21.28 10 24 C7.28137293 22.64068647 7.1771374 21.31729353 6.125 18.5 C4.50111738 14.23883433 2.70631439 10.11854769 0.734375 6.0078125 C0 4 0 4 0 0 Z " fill="#FACEAF" transform="translate(232,270)"/>
<path d="M0 0 C0.66 0.33 1.32 0.66 2 1 C-12.46153846 14 -12.46153846 14 -17 14 C-17 14.66 -17 15.32 -17 16 C-18.32 15.67 -19.64 15.34 -21 15 C-18.04555086 12.42677011 -15.07271407 10.44610025 -11.625 8.625 C-7.18987404 6.24028403 -3.70988153 3.39414693 0 0 Z " fill="#FAC29C" transform="translate(359,712)"/>
<path d="M0 0 C3.24488622 3.5925526 5.12795315 7.17584874 6.98046875 11.58203125 C8.34467738 14.81745325 9.85836754 17.98027657 11.36328125 21.15234375 C11.67845703 22.06693359 11.67845703 22.06693359 12 23 C11.67 23.66 11.34 24.32 11 25 C10.15885829 23.56705502 9.32734313 22.12845595 8.5 20.6875 C7.80390625 19.48673828 7.80390625 19.48673828 7.09375 18.26171875 C6 16 6 16 6 13 C5.34 13 4.68 13 4 13 C0.71428571 4.57142857 0.71428571 4.57142857 0 0 Z " fill="#FCDFCB" transform="translate(129,442)"/>
<path d="M0 0 C1 2 1 2 0.44140625 4.1640625 C0.15136719 4.97617187 -0.13867188 5.78828125 -0.4375 6.625 C-0.72496094 7.44226563 -1.01242187 8.25953125 -1.30859375 9.1015625 C-1.53675781 9.72804688 -1.76492188 10.35453125 -2 11 C-2.66 11 -3.32 11 -4 11 C-4.0825 11.515625 -4.165 12.03125 -4.25 12.5625 C-5.32140225 16.04455732 -7.13523605 18.87200885 -9 22 C-10 20 -10 20 -9.44140625 18.0546875 C-9.15136719 17.33539062 -8.86132812 16.61609375 -8.5625 15.875 C-8.27503906 15.15054688 -7.98757813 14.42609375 -7.69140625 13.6796875 C-7.46324219 13.12539063 -7.23507812 12.57109375 -7 12 C-6.34 12 -5.68 12 -5 12 C-4.731875 10.948125 -4.46375 9.89625 -4.1875 8.8125 C-3.1323171 5.42480754 -1.95273622 2.92910433 0 0 Z " fill="#F9BA8E" transform="translate(522,706)"/>
<path d="M0 0 C4.59037956 1.14759489 5.33669182 2.29039218 8 6 C6.35 5.67 4.7 5.34 3 5 C3.22816406 5.55429687 3.45632813 6.10859375 3.69140625 6.6796875 C3.97886719 7.40414062 4.26632812 8.12859375 4.5625 8.875 C4.85253906 9.59429688 5.14257812 10.31359375 5.44140625 11.0546875 C6 13 6 13 5 15 C4.67 13.35 4.34 11.7 4 10 C3.34 10 2.68 10 2 10 C1.34 6.7 0.68 3.4 0 0 Z " fill="#F58A41" transform="translate(253,704)"/>
<path d="M0 0 C0.66 0 1.32 0 2 0 C2 1.65 2 3.3 2 5 C2.66 5 3.32 5 4 5 C4 6.65 4 8.3 4 10 C4.66 10 5.32 10 6 10 C6.66 14.29 7.32 18.58 8 23 C7.34 23 6.68 23 6 23 C5.73445313 21.99839844 5.46890625 20.99679687 5.1953125 19.96484375 C4.83857569 18.62238679 4.48180293 17.27993939 4.125 15.9375 C3.95097656 15.28072266 3.77695312 14.62394531 3.59765625 13.94726562 C2.71890216 10.64380118 1.81870354 7.34972394 0.8671875 4.06640625 C0 1 0 1 0 0 Z " fill="#FCDECB" transform="translate(356,584)"/>
<path d="M0 0 C3.46195284 1.73097642 4.50945532 5.55886599 6 9 C7.27623701 12.96305177 8.25549989 16.90524941 9 21 C4.5225338 17.44890612 3.54148229 13.26293065 2 8 C1.608125 6.865625 1.21625 5.73125 0.8125 4.5625 C0 2 0 2 0 0 Z " fill="#FAC5A1" transform="translate(340,546)"/>
<path d="M0 0 C0.98120464 3.05263664 0.98120464 4.94736336 0 8 C-0.66 8 -1.32 8 -2 8 C-2.13664062 8.57878906 -2.27328125 9.15757812 -2.4140625 9.75390625 C-3.84156321 15.22599229 -5.88978798 20.2606293 -9 25 C-10 23 -10 23 -9.00390625 19.9609375 C-8.29041016 18.18589844 -8.29041016 18.18589844 -7.5625 16.375 C-7.08941406 15.18648437 -6.61632812 13.99796875 -6.12890625 12.7734375 C-5.75636719 11.85820313 -5.38382812 10.94296875 -5 10 C-4.34 10 -3.68 10 -3 10 C-2.87625 9.46375 -2.7525 8.9275 -2.625 8.375 C-1.87793984 5.5361714 -0.94696636 2.77776798 0 0 Z " fill="#F69958" transform="translate(445,538)"/>
<path d="M0 0 C0.66 0 1.32 0 2 0 C1.71125 0.845625 1.4225 1.69125 1.125 2.5625 C-0.00660014 6.02016709 -1.00935712 9.49972849 -2 13 C-2.33 13.99 -2.66 14.98 -3 16 C-3.66 16 -4.32 16 -5 16 C-4.938125 16.763125 -4.87625 17.52625 -4.8125 18.3125 C-5 21 -5 21 -6.5 22.8125 C-6.995 23.204375 -7.49 23.59625 -8 24 C-8 22.35 -8 20.7 -8 19 C-7.34 19 -6.68 19 -6 19 C-5.87625 18.31421875 -5.7525 17.6284375 -5.625 16.921875 C-4.92127287 13.63195065 -3.98934989 10.46538713 -3 7.25 C-2.649375 6.10015625 -2.29875 4.9503125 -1.9375 3.765625 C-1 1 -1 1 0 0 Z " fill="#F9C39E" transform="translate(470,472)"/>
<path d="M0 0 C0 3.10924826 -0.74666818 4.95410593 -2 7.75 C-3.27821379 10.62598102 -4.48093562 13.53077672 -5.6875 16.4375 C-6.12449219 17.48808594 -6.56148438 18.53867187 -7.01171875 19.62109375 C-7.33785156 20.40613281 -7.66398437 21.19117188 -8 22 C-9.05603065 18.81773316 -8.97463666 17.14308774 -7.6875 14.0625 C-7.40648437 13.37285156 -7.12546875 12.68320312 -6.8359375 11.97265625 C-6.56007813 11.32167969 -6.28421875 10.67070313 -6 10 C-5.4121875 8.515 -5.4121875 8.515 -4.8125 7 C-4.544375 6.34 -4.27625 5.68 -4 5 C-3.34 5 -2.68 5 -2 5 C-1.855625 4.360625 -1.71125 3.72125 -1.5625 3.0625 C-1 1 -1 1 0 0 Z " fill="#F69A5B" transform="translate(511,728)"/>
<path d="M0 0 C0.33 0.66 0.66 1.32 1 2 C0.59007812 2.51949219 0.18015625 3.03898438 -0.2421875 3.57421875 C-3.64140384 7.90792373 -3.64140384 7.90792373 -6.0625 12.8125 C-7.33991657 15.79313865 -9.16536103 16.58268051 -12 18 C-10.61230906 13.9670232 -8.7201398 11.14516807 -6 7.875 C-3.86263907 5.28973622 -1.86241106 2.79361659 0 0 Z " fill="#F9C29C" transform="translate(380,687)"/>
<path d="M0 0 C0.66 0 1.32 0 2 0 C2 1.32 2 2.64 2 4 C2.66 4 3.32 4 4 4 C4 5.32 4 6.64 4 8 C4.66 8 5.32 8 6 8 C6.52992692 9.45505358 7.0486789 10.91418127 7.5625 12.375 C7.85253906 13.18710937 8.14257812 13.99921875 8.44140625 14.8359375 C9 17 9 17 8 19 C6 18 6 18 5.1484375 16.07421875 C4.76558594 14.89279297 4.76558594 14.89279297 4.375 13.6875 C4.11460937 12.90761719 3.85421875 12.12773438 3.5859375 11.32421875 C3 9 3 9 3 5 C2.34 5 1.68 5 1 5 C0.67 3.35 0.34 1.7 0 0 Z " fill="#F79F62" transform="translate(218,631)"/>
<path d="M0 0 C0.6875 1.6875 0.6875 1.6875 1 4 C0.05607981 5.69905634 -0.95650161 7.36021682 -2 9 C-3.0957333 11.6386044 -4.04139218 14.30676852 -5 17 C-5.66 17 -6.32 17 -7 17 C-7.33 17.99 -7.66 18.98 -8 20 C-7.41196203 16.97580475 -6.77321882 13.98241547 -6 11 C-5.34 11 -4.68 11 -4 11 C-4 9.35 -4 7.7 -4 6 C-3.34 6 -2.68 6 -2 6 C-2 4.68 -2 3.36 -2 2 C-1.34 2 -0.68 2 0 2 C0 1.34 0 0.68 0 0 Z " fill="#FACDAF" transform="translate(447,531)"/>
<path d="M0 0 C0.66 0 1.32 0 2 0 C2 1.32 2 2.64 2 4 C2.66 4 3.32 4 4 4 C4 5.32 4 6.64 4 8 C4.66 8 5.32 8 6 8 C6 9.32 6 10.64 6 12 C6.66 12 7.32 12 8 12 C8.33 14.64 8.66 17.28 9 20 C6.61745895 17.61745895 5.45951066 15.25662549 3.9375 12.25 C3.41027344 11.22390625 2.88304687 10.1978125 2.33984375 9.140625 C1.01843324 6.04320794 0.4038473 3.33049377 0 0 Z " fill="#F69552" transform="translate(133,447)"/>
<path d="M0 0 C3.09709467 1.37195861 5.15870525 2.93792501 7.5 5.375 C9.41918748 7.36831919 11.3108195 9.27810166 13.375 11.125 C15.32757706 13.37797354 15.67464577 15.07181194 16 18 C14 16.75 14 16.75 12 15 C12 13.68 12 12.36 12 11 C11.42765625 10.75378906 10.8553125 10.50757813 10.265625 10.25390625 C7.63481257 8.79788765 5.85191095 7.08222766 3.75 4.9375 C3.04359375 4.22464844 2.3371875 3.51179687 1.609375 2.77734375 C0 1 0 1 0 0 Z " fill="#F9C099" transform="translate(207,237)"/>
<path d="M0 0 C6.07781789 0.5285059 11.54600325 2.23120855 17 5 C17.33 5.66 17.66 6.32 18 7 C15.91656149 6.52129086 13.83325311 6.04201531 11.75 5.5625 C10.00976562 5.16224609 10.00976562 5.16224609 8.234375 4.75390625 C7.16703125 4.50511719 6.0996875 4.25632813 5 4 C4.22140625 3.86464844 3.4428125 3.72929687 2.640625 3.58984375 C2.09921875 3.39519531 1.5578125 3.20054687 1 3 C0.67 2.01 0.34 1.02 0 0 Z " fill="#F69857" transform="translate(179,224)"/>
<path d="M0 0 C4.49459524 0.70228051 8.90610041 2.00087613 13 4 C13.33 4.66 13.66 5.32 14 6 C8.97294083 5.87952582 5.90127449 5.75412763 1.9375 2.4375 C1.298125 1.633125 0.65875 0.82875 0 0 Z " fill="#F8AC78" transform="translate(309,803)"/>
<path d="M0 0 C3.88878325 2.38478802 5.09921282 4.86929677 6.75 9.0625 C7.39195312 10.65771484 7.39195312 10.65771484 8.046875 12.28515625 C9 15 9 15 9 17 C8.34 17 7.68 17 7 17 C5.82866942 14.54379149 4.66278278 12.08525083 3.5 9.625 C3.16613281 8.92632813 2.83226562 8.22765625 2.48828125 7.5078125 C0 2.2265625 0 2.2265625 0 0 Z " fill="#F9BB90" transform="translate(278,763)"/>
<path d="M0 0 C0.66 0 1.32 0 2 0 C0.66900252 4.28094864 -0.97358845 8.19040322 -3 12.1875 C-3.7734375 13.72470703 -3.7734375 13.72470703 -4.5625 15.29296875 C-6 18 -6 18 -8 21 C-7.64627501 15.45830841 -6.02730008 11.85161285 -3.2109375 7.08984375 C-1.88641303 4.80397087 -0.88309791 2.48873048 0 0 Z " fill="#F6914C" transform="translate(559,625)"/>
<path d="M0 0 C0.99 0.33 1.98 0.66 3 1 C5.24926583 6.01759301 6.43250833 10.55207995 7 16 C3.8601549 14.43007745 3.57856654 11.77552998 2.375 8.5625 C1.92898437 7.38816406 1.48296875 6.21382813 1.0234375 5.00390625 C0 2 0 2 0 0 Z " fill="#F79D5F" transform="translate(125,430)"/>
<path d="M0 0 C0.33 0 0.66 0 1 0 C1.50945356 5.34926236 0.14685711 7.74248744 -3 12 C-3.69429379 13.3191582 -4.37530495 14.64649406 -5 16 C-5.83139386 13.62761499 -6.14379438 12.40675537 -5.29296875 10 C-4.92816406 9.34 -4.56335938 8.68 -4.1875 8 C-3.83042969 7.34 -3.47335937 6.68 -3.10546875 6 C-2.74066406 5.34 -2.37585938 4.68 -2 4 C-1.32779514 2.66945017 -0.65949511 1.33689507 0 0 Z " fill="#FBD4BA" transform="translate(501,750)"/>
<path d="M0 0 C0.66 0.33 1.32 0.66 2 1 C1.67 2.32 1.34 3.64 1 5 C0.34 5 -0.32 5 -1 5 C-1.103125 5.886875 -1.20625 6.77375 -1.3125 7.6875 C-2.01848778 11.08907749 -2.99310046 13.19034065 -5 16 C-5.66 16.33 -6.32 16.66 -7 17 C-6.54554036 15.58208592 -6.08625056 14.16571954 -5.625 12.75 C-5.24214844 11.56664062 -5.24214844 11.56664062 -4.8515625 10.359375 C-4.04826333 8.13372042 -3.10288338 6.09068328 -2 4 C-1.34 4 -0.68 4 0 4 C0 2.68 0 1.36 0 0 Z " fill="#F79C5E" transform="translate(549,646)"/>
<path d="M0 0 C1.06798426 2.74159373 1.02884475 3.91055596 0.109375 6.76171875 C-0.33921875 7.72722656 -0.7878125 8.69273437 -1.25 9.6875 C-1.68828125 10.66074219 -2.1265625 11.63398437 -2.578125 12.63671875 C-4 15 -4 15 -7 16 C-5.60668753 10.04675579 -3.11464243 5.24258516 0 0 Z " fill="#FBD5BB" transform="translate(617,507)"/>
<path d="M0 0 C0.99 0.33 1.98 0.66 3 1 C3.66015625 2.8203125 3.66015625 2.8203125 4.0625 5.125 C4.83360354 9.17491356 5.82337256 13.04989358 7 17 C6.34 17 5.68 17 5 17 C5 15.35 5 13.7 5 12 C4.34 12 3.68 12 3 12 C3 10.35 3 8.7 3 7 C2.34 7 1.68 7 1 7 C0.67 4.69 0.34 2.38 0 0 Z " fill="#F69B5C" transform="translate(247,311)"/>
<path d="M0 0 C1.36834889 3.69454201 0.55716488 5.47589001 -1 9 C-1.33 10.216875 -1.66 11.43375 -2 12.6875 C-3 16 -3 16 -5 18 C-4.67 14.7 -4.34 11.4 -4 8 C-3.34 8 -2.68 8 -2 8 C-1.7834375 6.576875 -1.7834375 6.576875 -1.5625 5.125 C-1 2 -1 2 0 0 Z " fill="#F8AB77" transform="translate(715,295)"/>
<path d="M0 0 C0 3.55607989 -0.96042223 5.78002211 -2.3125 9.0625 C-2.74175781 10.12597656 -3.17101562 11.18945312 -3.61328125 12.28515625 C-5 15 -5 15 -8 17 C-8 15.68 -8 14.36 -8 13 C-7.34 13 -6.68 13 -6 13 C-6 11.68 -6 10.36 -6 9 C-5.34 9 -4.68 9 -4 9 C-3.8453125 8.1646875 -3.8453125 8.1646875 -3.6875 7.3125 C-2.86866423 4.55823422 -1.54146219 2.41272343 0 0 Z " fill="#F69451" transform="translate(611,518)"/>
<path d="M0 0 C0.66 0 1.32 0 2 0 C3.5078125 2.01171875 3.5078125 2.01171875 5.125 4.6875 C5.66382813 5.55761719 6.20265625 6.42773438 6.7578125 7.32421875 C8.07159992 10.15423253 8.25500388 11.9233227 8 15 C7.34 15 6.68 15 6 15 C5.18618205 13.06305322 4.37399084 11.12542289 3.5625 9.1875 C3.11003906 8.10855469 2.65757812 7.02960938 2.19140625 5.91796875 C1.39624987 3.9704874 0.66520352 1.99561057 0 0 Z " fill="#FBD3B8" transform="translate(224,255)"/>
<path d="M0 0 C-1.0719904 3.4541913 -2.09716431 4.05218083 -5.375 5.8125 C-8.941828 6.98094365 -9.67475827 7.07667519 -13 6 C-11.54195831 5.18697675 -10.08355685 4.37459869 -8.625 3.5625 C-7.40683594 2.88380859 -7.40683594 2.88380859 -6.1640625 2.19140625 C-2.18360656 0 -2.18360656 0 0 0 Z " fill="#FBD1B5" transform="translate(463,804)"/>
<path d="M0 0 C0.66 0.33 1.32 0.66 2 1 C-4.39742586 5.13951085 -9.51344397 6.2581571 -17 6 C-17 5.67 -17 5.34 -17 5 C-16.19175781 4.80664062 -15.38351562 4.61328125 -14.55078125 4.4140625 C-13.48214844 4.15367187 -12.41351563 3.89328125 -11.3125 3.625 C-10.25675781 3.36976563 -9.20101563 3.11453125 -8.11328125 2.8515625 C-5.01295392 2.07633613 -5.01295392 2.07633613 -2.23046875 0.8359375 C-1.49441406 0.56007813 -0.75835937 0.28421875 0 0 Z " fill="#FCE6D6" transform="translate(339,725)"/>
<path d="M0 0 C1.11346788 2.80033839 1.03510273 3.90143703 0.00390625 6.796875 C-0.47175781 7.77140625 -0.94742187 8.7459375 -1.4375 9.75 C-1.91058594 10.73484375 -2.38367188 11.7196875 -2.87109375 12.734375 C-3.24363281 13.48203125 -3.61617188 14.2296875 -4 15 C-5.3480932 11.339671 -4.6336844 9.33449773 -3.125 5.8125 C-2.75632812 4.93207031 -2.38765625 4.05164063 -2.0078125 3.14453125 C-1 1 -1 1 0 0 Z " fill="#F69756" transform="translate(396,658)"/>
<path d="M0 0 C0.93423645 3.01031744 1.04449911 3.86650268 0 7 C-0.66 7 -1.32 7 -2 7 C-1.938125 7.721875 -1.87625 8.44375 -1.8125 9.1875 C-2.03523932 12.52858974 -3.1282246 14.27032755 -5 17 C-6 15 -6 15 -5.546875 13.046875 C-3.97535577 8.51720193 -2.28055679 4.23531976 0 0 Z " fill="#F79D5F" transform="translate(477,459)"/>
<path d="M0 0 C0.66 0 1.32 0 2 0 C2 1.65 2 3.3 2 5 C2.66 5 3.32 5 4 5 C4 6.65 4 8.3 4 10 C4.66 10 5.32 10 6 10 C6.33 12.97 6.66 15.94 7 19 C3.04186376 13.06279563 0.60562741 7.11612201 0 0 Z " fill="#FCDEC9" transform="translate(307,459)"/>
<path d="M0 0 C0.95465783 2.16967689 1.14401212 3.56328793 0.3984375 5.82421875 C-0.35870385 7.5684743 -1.17609198 9.28627131 -2 11 C-2.66 11 -3.32 11 -4 11 C-4 12.65 -4 14.3 -4 16 C-4.66 16 -5.32 16 -6 16 C-2.28571429 2.28571429 -2.28571429 2.28571429 0 0 Z " fill="#F79D60" transform="translate(547,288)"/>
<path d="M0 0 C2.41835897 0.08722937 4.83313316 0.19411373 7.25 0.3125 C7.93191406 0.33505859 8.61382813 0.35761719 9.31640625 0.38085938 C13.45151296 0.60166604 15.97914434 1.09593 19 4 C16.36 4 13.72 4 11 4 C11 3.34 11 2.68 11 2 C8.02148438 2.09765625 8.02148438 2.09765625 5.04296875 2.1953125 C3 2 3 2 0 0 Z " fill="#F7A064" transform="translate(653,222)"/>
<path d="M0 0 C0.33 0.99 0.66 1.98 1 3 C-0.15766427 4.71995834 -1.32796537 6.43401748 -2.5859375 8.08203125 C-4.67194239 10.91139148 -6.30480117 13.92352805 -8 17 C-8.33 16.34 -8.66 15.68 -9 15 C-7.8203125 12.7578125 -7.8203125 12.7578125 -6.125 10.125 C-4.13562564 7.02527716 -2.87552661 4.54986244 -2 1 C-1.34 0.67 -0.68 0.34 0 0 Z " fill="#FBD5BA" transform="translate(390,670)"/>
<path d="M0 0 C0.68359375 1.640625 0.68359375 1.640625 1 4 C-0.21484375 6.796875 -0.21484375 6.796875 -1.9375 9.75 C-2.50339844 10.73484375 -3.06929687 11.7196875 -3.65234375 12.734375 C-4.09707031 13.48203125 -4.54179688 14.2296875 -5 15 C-5.33 15 -5.66 15 -6 15 C-6.57110208 10.14563233 -4.7922308 7.85984845 -2 4 C-1.30570621 2.6808418 -0.62469505 1.35350594 0 0 Z " fill="#F8A973" transform="translate(579,585)"/>
<path d="M0 0 C0.66 0 1.32 0 2 0 C2 1.32 2 2.64 2 4 C2.66 4 3.32 4 4 4 C4 5.65 4 7.3 4 9 C4.66 9 5.32 9 6 9 C6.33 11.64 6.66 14.28 7 17 C5 16 5 16 3.7109375 12.65625 C3.25795532 11.27332205 2.81297044 9.88775518 2.375 8.5 C2.14554687 7.79746094 1.91609375 7.09492187 1.6796875 6.37109375 C0 1.18205915 0 1.18205915 0 0 Z " fill="#FBDAC4" transform="translate(369,618)"/>
<path d="M0 0 C0.66 0 1.32 0 2 0 C1.67 1.98 1.34 3.96 1 6 C0.34 6 -0.32 6 -1 6 C-0.938125 7.11375 -0.938125 7.11375 -0.875 8.25 C-1.00398134 11.08758952 -1.57051222 12.58773938 -3 15 C-3.66 15 -4.32 15 -5 15 C-3.60961435 9.86626838 -1.91539047 4.96260257 0 0 Z " fill="#FBD6BD" transform="translate(629,480)"/>
<path d="M0 0 C1.85255625 2.77883437 2.64686353 4.72060841 3.5625 7.875 C3.93568359 9.13957031 3.93568359 9.13957031 4.31640625 10.4296875 C4.98409006 12.94017862 5.51972064 15.44765825 6 18 C2.10486551 13.54841773 0.12648027 8.36096503 -0.1875 2.5 C-0.125625 1.675 -0.06375 0.85 0 0 Z " fill="#F58F49" transform="translate(311,472)"/>
<path d="M0 0 C0.33 0.66 0.66 1.32 1 2 C1.66 2 2.32 2 3 2 C3 3.32 3 4.64 3 6 C3.66 6 4.32 6 5 6 C5 7.32 5 8.64 5 10 C5.66 10 6.32 10 7 10 C7 11.65 7 13.3 7 15 C3.32217645 10.40272057 0 6.02578256 0 0 Z " fill="#F69553" transform="translate(115,408)"/>
<path d="M0 0 C1.07033136 3.21822604 0.95795392 5.03142433 -0.25 8.1875 C-0.62898438 9.22970703 -0.62898438 9.22970703 -1.015625 10.29296875 C-2 12 -2 12 -5 13 C-4.54803755 11.39402675 -4.08817673 9.79027492 -3.625 8.1875 C-3.36976563 7.29417969 -3.11453125 6.40085937 -2.8515625 5.48046875 C-2 3 -2 3 0 0 Z " fill="#F69C5E" transform="translate(504,393)"/>
<path d="M0 0 C0.66 0 1.32 0 2 0 C2 1.32 2 2.64 2 4 C2.66 4 3.32 4 4 4 C4.33 7.3 4.66 10.6 5 14 C1.71568547 10.71568547 1.4856148 9.71363525 0.8125 5.3125 C0.65394531 4.31863281 0.49539063 3.32476563 0.33203125 2.30078125 C0.22246094 1.54152344 0.11289062 0.78226563 0 0 Z " fill="#F7A36A" transform="translate(273,749)"/>
<path d="M0 0 C1 2 1 2 0.3125 4.6875 C-1.15609461 8.39395307 -2.9505691 11.58428184 -5 15 C-6.0326802 12.21176345 -6.04509293 11.1322726 -5.0625 8.25 C-4.711875 7.5075 -4.36125 6.765 -4 6 C-3.01 6 -2.02 6 -1 6 C-1.020625 5.195625 -1.04125 4.39125 -1.0625 3.5625 C-1 1 -1 1 0 0 Z " fill="#FBDBC6" transform="translate(435,559)"/>
<path d="M0 0 C0.66 0 1.32 0 2 0 C2 1.65 2 3.3 2 5 C2.66 5 3.32 5 4 5 C4 6.65 4 8.3 4 10 C4.66 10 5.32 10 6 10 C6 11.98 6 13.96 6 16 C1.90857114 10.97870095 0.75211242 6.3929556 0 0 Z " fill="#FBD8C1" transform="translate(286,406)"/>
<path d="M0 0 C0.33 0 0.66 0 1 0 C1.31245735 4.58270782 0.92744156 6.50958891 -2 10 C-2.71162443 11.64797236 -3.39031953 13.31165408 -4 15 C-5 13 -5 13 -4.2578125 10.21484375 C-3.88398437 9.13332031 -3.51015625 8.05179687 -3.125 6.9375 C-2.75632812 5.85339844 -2.38765625 4.76929688 -2.0078125 3.65234375 C-1 1 -1 1 0 0 Z " fill="#FBDBC4" transform="translate(530,325)"/>
<path d="M0 0 C1 2 1 2 0.58203125 3.83984375 C-0.93195161 7.96679196 -1.96518469 10.773895 -6 13 C-5.33333333 10.33333333 -4.66666667 7.66666667 -4 5 C-3.34 5 -2.68 5 -2 5 C-2 3.68 -2 2.36 -2 1 C-1.34 0.67 -0.68 0.34 0 0 Z " fill="#F69553" transform="translate(539,669)"/>
<path d="M0 0 C0.99 0.33 1.98 0.66 3 1 C3.66 4.63 4.32 8.26 5 12 C4.34 12 3.68 12 3 12 C3 10.35 3 8.7 3 7 C2.34 7 1.68 7 1 7 C0.67 4.69 0.34 2.38 0 0 Z " fill="#F69755" transform="translate(347,566)"/>
<path d="M0 0 C2.54384726 1.27192363 2.69368156 2.19948469 3.6875 4.8125 C3.95949219 5.49957031 4.23148437 6.18664062 4.51171875 6.89453125 C5.06812731 9.29376496 4.77364938 10.6894364 4 13 C1.04952165 8.38987758 -0.5497272 5.63470383 0 0 Z " fill="#F7A46B" transform="translate(335,533)"/>
<path d="M0 0 C2 1 2 1 3.125 3.3125 C4 6 4 6 4 10 C4.66 10 5.32 10 6 10 C6 11.65 6 13.3 6 15 C3.17412288 12.60156648 2.29810862 10.47839022 1.3125 6.9375 C1.06113281 6.05964844 0.80976563 5.18179687 0.55078125 4.27734375 C0 2 0 2 0 0 Z " fill="#FACEB0" transform="translate(314,478)"/>
<path d="M0 0 C0.66 0 1.32 0 2 0 C2 1.65 2 3.3 2 5 C2.99 5.33 3.98 5.66 5 6 C5.33 8.31 5.66 10.62 6 13 C2.67767949 10.78511966 2.4289756 10.13888343 1.3125 6.5 C1.06113281 5.7059375 0.80976563 4.911875 0.55078125 4.09375 C0 2 0 2 0 0 Z " fill="#FBD8BF" transform="translate(297,435)"/>
<path d="M0 0 C0.66 0 1.32 0 2 0 C1.74412595 1.77305664 1.46972261 3.54344608 1.1875 5.3125 C1.03667969 6.29863281 0.88585937 7.28476562 0.73046875 8.30078125 C-0.03436705 11.12699269 -0.75258762 12.1959128 -3 14 C-2.58846263 9.02906176 -2.20399168 4.55491614 0 0 Z " fill="#FBD7BE" transform="translate(499,399)"/>
<path d="M0 0 C0.33 0 0.66 0 1 0 C1.17615457 3.87540045 1.28341107 6.75515269 -1 10 C-1.99 10.33 -2.98 10.66 -4 11 C-3.39301257 6.87248551 -1.96189209 3.6678852 0 0 Z " fill="#FAC6A3" transform="translate(693,346)"/>
<path d="M0 0 C1 2 1 2 0.125 5 C-1 8 -1 8 -2 10 C-2.66 10 -3.32 10 -4 10 C-4 11.65 -4 13.3 -4 15 C-4.66 15 -5.32 15 -6 15 C-4.64475824 9.57903298 -2.63365987 4.9221313 0 0 Z " fill="#FBDCC6" transform="translate(511,730)"/>
<path d="M0 0 C1.79258558 0.08693141 3.58415144 0.19510504 5.375 0.3125 C6.87160156 0.39951172 6.87160156 0.39951172 8.3984375 0.48828125 C9.25695312 0.65714844 10.11546875 0.82601562 11 1 C11.66 1.99 12.32 2.98 13 4 C11.58222818 3.91214662 10.16570961 3.80395353 8.75 3.6875 C7.96109375 3.62949219 7.1721875 3.57148437 6.359375 3.51171875 C3.60815938 2.9150147 2.11964043 1.81336211 0 0 Z " fill="#F69858" transform="translate(270,708)"/>
<path d="M0 0 C0.625 1.8125 0.625 1.8125 1 4 C0.01 5.485 0.01 5.485 -1 7 C-1.66 7 -2.32 7 -3 7 C-3 8.65 -3 10.3 -3 12 C-3.66 12 -4.32 12 -5 12 C-4.690625 10.9275 -4.38125 9.855 -4.0625 8.75 C-3.48811207 6.7227485 -2.93407489 4.68685575 -2.5 2.625 C-2.335 2.08875 -2.17 1.5525 -2 1 C-1.34 0.67 -0.68 0.34 0 0 Z " fill="#F69756" transform="translate(421,598)"/>
<path d="M0 0 C1.93153715 1.93153715 2.93433852 3.47725421 4.1875 5.875 C4.55230469 6.55304687 4.91710937 7.23109375 5.29296875 7.9296875 C6.12831471 10.37572815 5.84566329 11.5976699 5 14 C3 11 3 11 3 8 C2.34 8 1.68 8 1 8 C0.67 5.36 0.34 2.72 0 0 Z " fill="#FBDDC7" transform="translate(162,512)"/>
<path d="M0 0 C2.64492308 1.32246154 2.97833787 2.64535898 4.1875 5.3125 C4.55230469 6.09238281 4.91710937 6.87226562 5.29296875 7.67578125 C6.07807525 10.2566562 5.89937661 11.49663962 5 14 C1.93757784 9.15939723 0.46588495 5.70709064 0 0 Z " fill="#F8B384" transform="translate(227,651)"/>
<path d="M0 0 C1 2 1 2 0.3125 4.75 C-1.07926349 8.1962715 -2.84459722 10.9824361 -5 14 C-5.33 13.34 -5.66 12.68 -6 12 C-4.78515625 9.1796875 -4.78515625 9.1796875 -3.0625 5.875 C-2.49660156 4.77929688 -1.93070313 3.68359375 -1.34765625 2.5546875 C-0.90292969 1.71164062 -0.45820312 0.86859375 0 0 Z " fill="#FACFB2" transform="translate(558,631)"/>
<path d="M0 0 C3.53790403 3.69172595 3.59115883 7.09390595 4 12 C3.34 12 2.68 12 2 12 C-0.60018816 8.09971775 -0.15085514 4.52565431 0 0 Z " fill="#F7A56D" transform="translate(292,422)"/>
<path d="M0 0 C3.21524305 1.40844718 5.32183868 3.10344786 7.75 5.625 C8.67039062 6.57246094 8.67039062 6.57246094 9.609375 7.5390625 C10.29773438 8.26222656 10.29773438 8.26222656 11 9 C10.67 9.66 10.34 10.32 10 11 C9.60167969 10.57847656 9.20335937 10.15695313 8.79296875 9.72265625 C8.26316406 9.17480469 7.73335937 8.62695312 7.1875 8.0625 C6.66542969 7.51722656 6.14335938 6.97195312 5.60546875 6.41015625 C3.94187802 4.76480908 3.94187802 4.76480908 1 4 C0.3125 1.9375 0.3125 1.9375 0 0 Z " fill="#F9C098" transform="translate(696,235)"/>
<path d="M0 0 C3.63 0.33 7.26 0.66 11 1 C11 1.99 11 2.98 11 4 C7.0507432 3.44894091 3.65079826 2.61064629 0 1 C0 0.67 0 0.34 0 0 Z " fill="#FBD3B7" transform="translate(289,727)"/>
<path d="M0 0 C0.99 0.33 1.98 0.66 3 1 C3 2.65 3 4.3 3 6 C3.66 6 4.32 6 5 6 C5.33 8.31 5.66 10.62 6 13 C3.19438607 11.59719304 2.99319493 9.9490995 1.875 7.0625 C1.52179688 6.16660156 1.16859375 5.27070313 0.8046875 4.34765625 C0 2 0 2 0 0 Z " fill="#F6934F" transform="translate(153,490)"/>
<path d="M0 0 C3.18315856 1.59157928 3.85642677 4.80472184 5 8 C5.6875 10.9375 5.6875 10.9375 6 13 C4.5 11.6875 4.5 11.6875 3 10 C3 9.01 3 8.02 3 7 C2.34 7 1.68 7 1 7 C0.67 4.69 0.34 2.38 0 0 Z " fill="#FACFB1" transform="translate(66,304)"/>
<path d="M0 0 C0.66 0 1.32 0 2 0 C2 1.98 2 3.96 2 6 C2.66 6 3.32 6 4 6 C4.33 8.64 4.66 11.28 5 14 C3 13 3 13 1.9375 10.9375 C0.76768577 7.27208208 0.38918989 3.82703395 0 0 Z " fill="#F6934F" transform="translate(65,296)"/>
<path d="M0 0 C3.55780196 0.60990891 6.6828589 1.5783681 10 3 C10 3.66 10 4.32 10 5 C2.42857143 3.14285714 2.42857143 3.14285714 0 0 Z " fill="#FACAA9" transform="translate(279,722)"/>
<path d="M0 0 C1 2 1 2 0.44140625 4.1640625 C0.15136719 4.97617187 -0.13867188 5.78828125 -0.4375 6.625 C-0.72496094 7.44226563 -1.01242187 8.25953125 -1.30859375 9.1015625 C-1.53675781 9.72804688 -1.76492188 10.35453125 -2 11 C-2.66 11 -3.32 11 -4 11 C-2.95902388 7.13351728 -1.96301592 3.50538557 0 0 Z " fill="#FBD0B3" transform="translate(543,662)"/>
<path d="M0 0 C0.66 0 1.32 0 2 0 C0.68938409 4.23429756 -0.94356259 8.07407404 -3 12 C-4 10 -4 10 -3.22265625 7.6171875 C-2.83980469 6.71226562 -2.45695312 5.80734375 -2.0625 4.875 C-1.68222656 3.96492188 -1.30195313 3.05484375 -0.91015625 2.1171875 C-0.60980469 1.41851562 -0.30945313 0.71984375 0 0 Z " fill="#FCDFCC" transform="translate(470,472)"/>
<path d="M0 0 C0.99 0.33 1.98 0.66 3 1 C3.66 4.3 4.32 7.6 5 11 C3 10 3 10 2.1484375 7.71484375 C1.89320313 6.79832031 1.63796875 5.88179688 1.375 4.9375 C1.11460937 4.01839844 0.85421875 3.09929687 0.5859375 2.15234375 C0.39257812 1.44207031 0.19921875 0.73179687 0 0 Z " fill="#F79E61" transform="translate(142,467)"/>
<path d="M0 0 C0.66 0 1.32 0 2 0 C1.67 1.98 1.34 3.96 1 6 C0.34 6 -0.32 6 -1 6 C-1 7.32 -1 8.64 -1 10 C-1.66 10 -2.32 10 -3 10 C-1.125 2.25 -1.125 2.25 0 0 Z " fill="#FCDECA" transform="translate(701,330)"/>
<path d="M0 0 C1.24546405 2.49092811 0.7767578 3.41080733 0 6 C-0.66 6 -1.32 6 -2 6 C-2.66 7.98 -3.32 9.96 -4 12 C-4.65234375 10.265625 -4.65234375 10.265625 -5 8 C-4.00390625 5.859375 -4.00390625 5.859375 -2.5625 3.75 C-2.08941406 3.04359375 -1.61632812 2.3371875 -1.12890625 1.609375 C-0.75636719 1.07828125 -0.38382813 0.5471875 0 0 Z " fill="#F69858" transform="translate(560,260)"/>
<path d="M0 0 C3.12270126 2.51830747 3.94523098 3.7261549 4.75 7.75 C4.8325 8.8225 4.915 9.895 5 11 C1.92893485 9.46446743 1.32812424 7.07883346 0 4 C0 2.68 0 1.36 0 0 Z " fill="#F79F63" transform="translate(710,250)"/>
<path d="M0 0 C-3.55639236 2.30119506 -6.94718288 3.77472971 -11 5 C-10 2 -10 2 -8.22265625 1.015625 C-7.15337891 0.63664063 -7.15337891 0.63664063 -6.0625 0.25 C-5.35222656 -0.01296875 -4.64195312 -0.2759375 -3.91015625 -0.546875 C-2 -1 -2 -1 0 0 Z " fill="#F68F48" transform="translate(336,705)"/>
<path d="M0 0 C1 2 1 2 0.44140625 4.1640625 C0.15136719 4.97617187 -0.13867188 5.78828125 -0.4375 6.625 C-0.72496094 7.44226563 -1.01242187 8.25953125 -1.30859375 9.1015625 C-1.53675781 9.72804688 -1.76492188 10.35453125 -2 11 C-2.66 10.67 -3.32 10.34 -4 10 C-3.52449439 8.51965236 -3.04448784 7.04074979 -2.5625 5.5625 C-2.29566406 4.73878906 -2.02882813 3.91507813 -1.75390625 3.06640625 C-1 1 -1 1 0 0 Z " fill="#FCE0CD" transform="translate(583,579)"/>
<path d="M0 0 C2.3125 0.1875 2.3125 0.1875 5 1 C6.8125 3.5625 6.8125 3.5625 8 6 C4.63408134 4.55746343 2.48952921 2.66735273 0 0 Z " fill="#F7A166" transform="translate(301,797)"/>
<path d="M0 0 C3.12270126 2.51830747 3.94523098 3.7261549 4.75 7.75 C4.8325 8.8225 4.915 9.895 5 11 C3 10 3 10 2.1484375 7.71484375 C1.89320313 6.79832031 1.63796875 5.88179687 1.375 4.9375 C1.11460937 4.01839844 0.85421875 3.09929688 0.5859375 2.15234375 C0.39257812 1.44207031 0.19921875 0.73179687 0 0 Z " fill="#FACCAC" transform="translate(202,599)"/>
<path d="M0 0 C3 2 3 2 3.51171875 3.9453125 C3.67447917 5.96354167 3.83723958 7.98177083 4 10 C3.34 10 2.68 10 2 10 C0.68373308 6.38026598 0 3.90432869 0 0 Z " fill="#F8AD79" transform="translate(360,597)"/>
<path d="M0 0 C2 1 2 1 2.8515625 3.28515625 C3.10679687 4.20167969 3.36203125 5.11820313 3.625 6.0625 C3.88539063 6.98160156 4.14578125 7.90070312 4.4140625 8.84765625 C4.60742188 9.55792969 4.80078125 10.26820313 5 11 C1.87729874 8.48169253 1.05476902 7.2738451 0.25 3.25 C0.1675 2.1775 0.085 1.105 0 0 Z " fill="#F9B689" transform="translate(344,556)"/>
<path d="M0 0 C0.66 0 1.32 0 2 0 C1.55090939 1.48199902 1.09043436 2.96055236 0.625 4.4375 C0.36976563 5.26121094 0.11453125 6.08492188 -0.1484375 6.93359375 C-1 9 -1 9 -3 10 C-2.25 3.375 -2.25 3.375 0 0 Z " fill="#FACAA9" transform="translate(644,449)"/>
<path d="M0 0 C1 2 1 2 0.125 5 C-1 8 -1 8 -2 10 C-2.66 10 -3.32 10 -4 10 C-3.52449439 8.51965236 -3.04448784 7.04074979 -2.5625 5.5625 C-2.29566406 4.73878906 -2.02882813 3.91507812 -1.75390625 3.06640625 C-1 1 -1 1 0 0 Z " fill="#FBDAC3" transform="translate(679,377)"/>
<path d="M0 0 C2.64 0.33 5.28 0.66 8 1 C8 1.66 8 2.32 8 3 C8.66 3.33 9.32 3.66 10 4 C5.78087253 3.5205537 3.20336822 2.83374881 0 0 Z " fill="#FBD9C2" transform="translate(668,223)"/>
<path d="M0 0 C0.66 0 1.32 0 2 0 C0.84414715 3.91211733 -0.35534962 6.8745041 -3 10 C-2.39009109 6.44219804 -1.4216319 3.3171411 0 0 Z " fill="#FBDBC5" transform="translate(504,389)"/>
</svg>
